<?xml version="1.0" standalone="no"?>
<!DOCTYPE svg PUBLIC "-//W3C//DTD SVG 20010904//EN"
 "http://www.w3.org/TR/2001/REC-SVG-20010904/DTD/svg10.dtd">
<svg version="1.0" xmlns="http://www.w3.org/2000/svg"
 width="700.000000pt" height="700.000000pt" viewBox="0 0 700.000000 700.000000"
 preserveAspectRatio="xMidYMid meet">
<metadata>
Created by potrace 1.14, written by Peter Selinger 2001-2017
</metadata>
<g transform="translate(0.000000,700.000000) scale(0.100000,-0.100000)"
fill="#000000" stroke="none">
<path d="M6 4941 c8 -35 36 -139 89 -335 14 -50 32 -116 40 -146 8 -30 28
-102 44 -160 16 -58 52 -193 81 -300 28 -107 55 -206 60 -220 4 -14 17 -61 29
-105 12 -44 37 -138 57 -210 19 -71 44 -164 55 -205 11 -41 45 -165 74 -275
30 -110 91 -332 135 -494 44 -162 82 -296 84 -299 3 -2 141 -4 307 -4 l303 0
13 43 c7 24 28 103 47 174 19 72 60 222 90 335 31 113 72 266 92 340 20 74 45
164 55 200 10 36 59 218 109 405 50 187 94 348 98 358 5 12 33 -76 81 -255 40
-150 114 -421 163 -603 49 -181 101 -373 114 -425 69 -259 154 -563 158 -568
6 -5 606 -6 610 -1 1 2 19 67 39 144 21 77 60 223 87 325 28 102 66 241 84
310 19 69 57 211 86 315 28 105 65 240 80 300 16 61 41 151 55 200 14 50 35
129 47 178 12 48 25 87 28 87 3 0 25 -73 49 -162 24 -90 56 -210 72 -268 16
-58 77 -280 134 -495 58 -214 112 -412 119 -440 8 -27 29 -104 46 -170 18 -66
40 -149 50 -185 10 -36 23 -83 29 -105 l10 -40 268 2 c147 1 285 2 305 2 41 1
39 -4 82 161 14 52 39 147 56 210 49 179 59 219 85 315 22 81 38 142 122 450
13 50 26 99 28 109 3 11 16 58 30 105 14 47 38 136 53 196 67 256 86 324 89
321 2 -2 35 -120 73 -262 39 -143 74 -275 80 -294 6 -19 28 -100 49 -180 22
-80 82 -305 135 -502 53 -196 99 -364 101 -375 2 -10 19 -71 36 -136 30 -111
34 -117 58 -117 38 -1 542 -1 568 -1 24 1 19 -12 88 246 21 77 51 187 67 245
16 58 31 112 33 120 1 8 69 258 150 555 80 297 176 648 211 780 36 132 72 263
79 290 8 28 42 151 75 275 34 124 63 233 66 242 4 15 -18 17 -278 16 l-283 0
-34 -147 c-18 -80 -46 -200 -62 -266 -15 -66 -30 -131 -33 -145 -7 -33 -10
-49 -35 -152 -11 -48 -23 -98 -25 -110 -5 -27 -78 -346 -106 -463 -23 -96 -60
-260 -66 -294 -3 -14 -7 -28 -9 -31 -2 -4 -7 -22 -10 -41 -3 -19 -26 -122 -51
-229 -26 -107 -48 -206 -51 -219 -2 -14 -8 -32 -13 -40 -8 -14 -9 -14 -10 2 0
9 0 19 0 22 -1 3 -7 23 -15 45 -8 22 -12 40 -10 40 3 0 0 11 -5 25 -5 14 -12
37 -14 50 -3 14 -17 71 -31 127 -15 57 -28 110 -30 118 -2 8 -45 179 -95 380
-50 201 -93 372 -95 380 -2 8 -8 35 -15 60 -7 25 -14 52 -16 60 -2 8 -13 53
-25 100 -11 47 -22 92 -24 100 -2 8 -16 60 -30 115 -15 55 -31 118 -36 140 -7
36 -50 204 -82 325 l-12 45 -269 0 -269 0 -69 -275 c-38 -151 -71 -282 -73
-290 -2 -8 -27 -107 -55 -220 -28 -113 -53 -212 -55 -220 -2 -8 -47 -186 -100
-395 -118 -464 -165 -653 -171 -682 -6 -30 -22 -70 -24 -58 -2 12 -3 15 -36
140 -14 55 -27 107 -29 115 -2 8 -67 267 -145 575 -78 308 -143 568 -145 578
-2 10 -7 27 -10 37 -3 10 -8 27 -10 37 -3 18 -149 597 -161 640 -6 21 -8 21
-274 21 l-268 0 -52 -206 c-28 -114 -53 -214 -55 -222 -2 -8 -8 -35 -15 -60
-7 -25 -14 -52 -16 -60 -1 -8 -21 -87 -44 -175 -46 -181 -200 -792 -205 -815
-2 -8 -22 -87 -45 -175 -23 -88 -43 -168 -45 -178 -2 -10 -7 -27 -10 -37 -3
-10 -7 -27 -9 -37 -8 -40 -45 -175 -49 -179 -2 -2 -14 38 -26 88 -12 51 -28
116 -36 143 -15 53 -162 636 -175 695 -4 19 -20 80 -35 135 -14 55 -28 111
-31 125 -3 14 -12 48 -20 76 -8 28 -16 60 -18 70 -7 34 -177 707 -192 761
l-15 51 -264 0 c-146 0 -267 -3 -269 -7 -4 -6 -227 -885 -241 -946 -2 -11 -66
-263 -141 -560 -75 -297 -142 -562 -149 -590 -7 -29 -14 -44 -18 -35 -3 8 -49
206 -102 440 -53 234 -105 463 -116 510 -11 47 -26 112 -34 145 -7 33 -25 110
-39 170 -21 88 -107 462 -121 525 -2 8 -20 90 -41 182 l-38 166 -282 0 c-256
0 -281 -2 -278 -17z"/>
</g>
</svg>
