<svg width="160" height="32" xmlns="http://www.w3.org/2000/svg"><g fill-rule="nonzero" fill="none"><path d="M50.253 18.244c-1.031 1.774-2.35 2.651-4.947 2.651-3.093 0-5.233-2.136-5.233-5.873 0-3.738 2.044-5.817 5.577-5.817 2.407 0 3.877 1.087 4.699 2.9l-2.789 1.353c-.305-1.049-.783-1.716-1.986-1.716-1.586 0-2.56 1.258-2.56 3.356 0 2.06.88 3.26 2.636 3.26.898 0 1.7-.514 2.101-1.544l2.502 1.43ZM51.787 20.749h2.791v-8.784h-2.791v8.784Zm1.396-13.005c.98 0 1.716.514 1.716 1.579 0 1.026-.736 1.559-1.716 1.559-.905 0-1.66-.533-1.66-1.56 0-1.064.755-1.578 1.66-1.578ZM63.12 20.303c-.802.401-1.756.592-2.9.592-1.794 0-3.015-.822-3.015-2.96v-3.916h-1.278V11.84h1.297V9.969l2.823-.325v2.197h2.614v2.178H60.03v3.266c0 .917.362 1.203 1.049 1.203.553 0 1.05-.21 1.564-.573l.477 2.388ZM67.698 15.597c.479 1.728.575 2.879.575 2.879h.076s.096-1.17.613-2.879l1.15-3.761h2.989l-3.583 9.672c-1.034 2.783-2.28 3.186-4.196 3.186a7.95 7.95 0 0 1-1.667-.21l.441-2.534c.326.21.747.326 1.169.326.766 0 1.264-.288 1.57-1.075l-3.275-9.365h3.103l1.035 3.761ZM77.425 9.498v8.768h4.19v2.483h-7.046V9.498zM86.885 16.26h2.517l-.307-.86c-.673-1.872-.904-3.285-.904-3.285h-.076s-.288 1.432-.923 3.266l-.307.879Zm3.363 2.388h-4.17l-.712 2.1H82.35l4.093-11.25h3.518l4.132 11.25h-3.094l-.75-2.1ZM98.589 18.323h1.806c.846 0 1.345-.23 1.345-1.089 0-.707-.5-1.05-1.345-1.05h-1.806v2.139Zm1.441-4.203c.788 0 1.287-.286 1.287-1.07 0-.84-.48-1.126-1.345-1.126H98.59v2.196h1.441Zm2.133.898c1.69.249 2.498 1.338 2.498 2.675 0 1.833-1.25 3.056-4.016 3.056h-4.939V9.498h4.977c2.287 0 3.497 1.07 3.497 2.827 0 1.394-.788 2.292-2.017 2.617v.076ZM115.945 14.12c.782 0 1.468-.286 1.468-1.222 0-.707-.4-.974-1.144-.974h-1.296l-.381 2.196h1.353Zm-2.096 4.203h1.791c.896 0 1.525-.344 1.525-1.223 0-.573-.305-.917-1.144-.917h-1.791l-.381 2.14Zm3.907-3.324c1.639.249 2.23 1.28 2.23 2.369 0 2.292-1.81 3.38-4.556 3.38h-4.898l1.964-11.25h4.65c2.306 0 3.221 1.05 3.221 2.521 0 1.7-1.182 2.713-2.592 2.903l-.02.077ZM127.251 15.277c.02-.114.038-.247.038-.4 0-.625-.21-1.119-.958-1.119-.766 0-1.226.703-1.437 1.519h2.357Zm-.192 2.354 2.721.645c-.517 1.784-1.743 2.619-4.234 2.619-2.549 0-4.005-1.48-4.005-3.815 0-3.473 2.338-5.39 4.905-5.39 2.568 0 3.756 1.537 3.756 3.188 0 .703-.134 1.385-.383 1.88h-5.231c-.23 1.157.249 1.973 1.188 1.973.651 0 1.092-.266 1.283-1.1ZM138.044 15.12c-1.265-.67-2.992-.478-3.317 1.378l-.748 4.25h-2.896l1.553-8.844h2.532l-.058 2.431c.613-1.819 2.09-2.967 3.606-2.565l-.672 3.35ZM141.964 17.8c-.077.42-.038.783.542.783.174 0 .349-.038.58-.096l-.464 2.16a5.33 5.33 0 0 1-1.528.248c-1.762 0-2.458-.879-2.168-2.58l1.858-10.278h2.922l-1.742 9.763ZM147.556 7.598c.987 0 1.728.516 1.728 1.584 0 1.03-.74 1.566-1.728 1.566-.912 0-1.672-.535-1.672-1.566 0-1.068.76-1.584 1.672-1.584Zm.076 10.059c-.076.42-.038.782.532.782.17 0 .342-.038.57-.095l-.456 2.157a5.145 5.145 0 0 1-1.5.248c-1.73 0-2.413-.878-2.128-2.577l1.12-6.337h2.869l-1.007 5.822ZM158.882 17.679c-.078.416-.039.776.54.776.173 0 .347-.037.578-.094l-.463 2.141a5.333 5.333 0 0 1-1.523.247c-1.755 0-2.45-.872-2.16-2.559l.482-2.73c.135-.795-.02-1.44-.906-1.44-.695 0-1.273.607-1.524 1.99l-.83 4.644h-2.91l1.561-8.756h2.546l.038 1.781c.56-1.288 1.35-1.99 2.835-1.99 1.408 0 2.295.891 2.295 2.237 0 .303-.02.511-.058.739l-.501 3.014Z" fill="#2F2FA2"/><path fill="#F64C72" d="m17.466 22.502-5.283-2.992.101-13.377L23.066 0l5.117 2.91-.02 13.461z"/><path fill="#393A61" d="m12.77 4.5-1.701.979-.044 5.95-6.04 3.472-.08 10.816L0 22.908.1 9.506 10.787 3.36z"/><path fill="#2F2FA2" d="m11.096 12.858-.055 7.438 6.453 3.687 4.524-2.615-.006 4.501L11.403 32l-5.238-2.993.1-13.377z"/></g></svg>