<svg width="336" height="56" xmlns="http://www.w3.org/2000/svg"><g fill-rule="nonzero" fill="none"><path d="M0 0v56h336V0H0Zm167.999 54.882H1.12V1.12H168v53.762Zm112 0h-110.88V1.12H280v53.762Zm54.88 0h-53.76V1.12h53.76v53.762Z" fill="#000"/><path d="M263.753 18.326v12.563c0 .163-.107.217-.187.054l-7.025-12.726a.472.472 0 0 0-.4-.217h-3.007c-.187 0-.32.135-.32.326V36.67c0 .19.133.326.32.326h2.609c.187 0 .319-.137.319-.326V24.133c0-.163.106-.217.187-.054l7.025 12.7c.08.136.24.217.4.217h3.007c.187 0 .319-.137.319-.326V18.326c0-.191-.132-.326-.32-.326h-2.608a.312.312 0 0 0-.32.326m-18.8 18.67h2.634c.186 0 .32-.137.32-.326V18.326c0-.191-.132-.326-.32-.326h-2.633c-.186 0-.32.135-.32.326V36.67c.002.19.134.326.32.326m-10.505-3.31v-15.36c0-.191-.132-.326-.32-.326h-2.633c-.185 0-.32.135-.32.326V36.67c0 .19.133.326.32.326h9.073c.187 0 .32-.137.32-.326v-2.497c0-.19-.133-.326-.32-.326h-5.96c-.106 0-.16-.08-.16-.161m-17.21-12.537h2.422c2.155 0 3.884 1.167 3.884 3.582s-1.73 3.582-3.912 3.582h-2.395c-.107 0-.16-.08-.16-.163v-6.838c.002-.108.055-.163.162-.163m6.173 15.847h3.351c.266 0 .345-.191.188-.407l-3.993-5.507c-.053-.08-.053-.19.054-.244 2.367-.976 3.939-3.12 3.939-6.105 0-4.234-3.141-6.729-7.131-6.729h-5.694c-.187 0-.32.135-.32.326v18.344c0 .19.133.326.32.326h2.634c.185 0 .32-.137.32-.326v-5.047c0-.108.078-.163.159-.163h2.023c.08 0 .16.055.213.109l3.566 5.21c.079.13.211.213.37.213m-14.443-16.173v-2.497c0-.191-.132-.326-.319-.326h-9.686c-.187 0-.32.135-.32.326V36.67c0 .19.133.326.32.326h9.686c.187 0 .32-.137.32-.326v-2.497c0-.19-.133-.326-.32-.326h-6.599c-.106 0-.16-.08-.16-.163v-4.56c0-.109.081-.163.16-.163h6.599c.187 0 .32-.135.32-.326v-2.47c0-.19-.133-.325-.32-.325h-6.599c-.106 0-.16-.054-.16-.163v-4.369c0-.108.081-.163.16-.163h6.599c.187.004.32-.133.32-.322m-20.745 13.024h-2.821c-.107 0-.16-.08-.16-.163v-4.56c0-.109.053-.163.16-.163h2.821c1.73 0 2.687 1.004 2.687 2.443 0 1.467-.958 2.443-2.687 2.443m-.266-12.698c1.676 0 2.606.924 2.606 2.334 0 1.411-.93 2.36-2.606 2.36h-2.555c-.107 0-.16-.053-.16-.162v-4.369c0-.108.053-.163.16-.163h2.555Zm3.886 5.969c1.33-.868 2.129-2.226 2.129-3.989 0-2.903-1.97-5.129-5.587-5.129h-6.067c-.185 0-.319.135-.319.326V36.67c0 .19.132.326.32.326h6.306c3.724 0 5.694-2.306 5.694-5.345 0-1.98-.93-3.473-2.474-4.314-.11-.082-.11-.165-.002-.22" fill="#E40422"/><path d="M315.995 44.192s-1.001-6.57-1.474-9.339l.206-.044c.438-.076.604-.571.408-.905-1.132-1.931-1.536-4.336-1.536-6.725 0-1.473.248-2.888.709-4.207.026-.076.054-.15.082-.226.016-.046.049-.148.057-.164.305-.658.856-2.085 1.017-3.684.133-1.293-.034-2.373-.262-3.384a10.134 10.134 0 0 0-.565-1.67l-.091-.16c.407-.405.488-1.055.173-1.595-.37-.631-1.128-.881-1.695-.557-.061.034-.2.132-.263.176a2.219 2.219 0 0 0-.163-.112c-.004-.002-.16-.104-.297-.176 0 0-.053-.026-.053-.028a4.653 4.653 0 0 0-1.891-.392 4.72 4.72 0 0 0-2.806.914c-.28.087-.582.11-.582.11l-.767.035c-.361.016-.773-.002-.773-.002a.327.327 0 0 0-.327.324c0 .016.12 1.062.12 1.064.027.262.138.507.36.65l.027.017c.07.046.107.084.12.124.086.228.257.454.372.524.053.032.136.016.15-.042.145-.57.488.046 1.142-.306.168-.09.259.314.188.49l-.06.152c-.136.34-.447.582-.812.636-.289.041-.456.07-.452.11.034.321-.004.6.327.793a.723.723 0 0 0 .145.064c.507.132 1.985.694.105 2.89 0 0-.178.198-.317.394-.04.056-.075.116-.103.178l-.038.08-5.653-2.095c-.17-.066-.39-.25-.494-.398l-.557-.947c-.346-.474-.648-.654-1.248-.702-.434-.036-.787-.002-.787-.002-.168.008-.265.048-.301.144-.038.106-.042.37.123.702l.485.881c.042.062.654 1.418.654 1.418.06.168.165.313.302.427l5.802 4.342-6.114 3.02a.758.758 0 0 1-.576.059 71.932 71.932 0 0 0-.547-.164c-1.001-.442-1.754-.134-2.194.231l-.174.162c-.167.164-.105.388.085.48 0 0 .965.562 1.177.706l1.502.881c.232.134.509.178.773.124l5.937-1.185c.143 2.25.717 4.122.717 4.122-1.07 1.02-2.546 2.964-3.03 5.635-.289 1.587-.194 3.026.242 4.715-.83.046-1.63.166-2.293.624-.632.436-.761 1.211-.765 1.599l4.635.01.391-.002c.489-.006.614-.486.614-.486.048-.146.062-.336.085-.475.147-.918.264-1.873 1.09-3.52.666-1.332 1.845-2.53 1.847-2.53.002.005 1.95 2.861 5.245 4.82-.632.04-1.448.246-1.932.512-.767.422-.98 1.29-.961 1.693h4.802a.743.743 0 0 0 .74-.66.726.726 0 0 0-.003-.148Z" fill="#000"/><g fill="#000"><path d="M20.229 14.707c0 2.122-1.397 3.47-3.36 3.47H14.8c-.06 0-.1-.04-.1-.1v-6.74c0-.06.04-.1.1-.1h2.07c1.963 0 3.36 1.35 3.36 3.47Zm-4.747 2.766h1.358c1.516 0 2.616-.961 2.616-2.766 0-1.804-1.1-2.765-2.616-2.765h-1.358c-.03 0-.05.02-.05.05v5.432c0 .03.02.05.05.05ZM21.27 11.962c0-.288.247-.536.544-.536.278 0 .525.248.525.536 0 .287-.247.545-.525.545a.557.557 0 0 1-.545-.545Zm.168 6.116v-4.402c0-.059.04-.099.099-.099h.525c.06 0 .099.04.099.1v4.4c0 .06-.04.1-.1.1h-.524c-.06 0-.1-.04-.1-.1ZM23.34 15.877c0-1.457.971-2.399 2.24-2.399 1.268 0 2.219.962 2.219 2.29 0 .07 0 .149-.01.228-.01.05-.04.08-.099.08h-3.498c-.07 0-.109.03-.089.128.109.863.694 1.428 1.575 1.428.545 0 .981-.248 1.299-.575.069-.07.118-.09.168-.04l.327.357c.04.04.04.09 0 .129a2.464 2.464 0 0 1-1.794.783c-1.367 0-2.338-.952-2.338-2.409Zm3.686-.496c-.129-.743-.684-1.249-1.447-1.249-.753 0-1.337.526-1.456 1.26-.02.079 0 .108.089.108h2.725c.08 0 .109-.03.09-.119ZM32.327 18.177h-.535c-.06 0-.099-.04-.099-.1v-6.74c0-.06.04-.1.1-.1h1.931c1.407 0 2.487.863 2.487 2.35 0 1.19-.713 1.933-1.704 2.22-.07.02-.089.05-.04.11l1.725 2.141c.05.07.02.119-.06.119h-.693c-.08 0-.12-.01-.169-.08l-1.645-2.1c-.06-.07-.079-.08-.158-.08h-.991c-.03 0-.05.02-.05.05v2.11c0 .06-.04.1-.099.1Zm.1-6.186v3.172c0 .03.02.05.049.05h1.179c.971 0 1.793-.476 1.793-1.636s-.822-1.635-1.793-1.635h-1.18c-.029 0-.049.02-.049.05ZM37.004 15.877c0-1.457.971-2.399 2.24-2.399 1.268 0 2.22.962 2.22 2.29 0 .07 0 .149-.01.228-.01.05-.04.08-.1.08h-3.498c-.07 0-.109.03-.089.128.11.863.694 1.428 1.576 1.428.545 0 .98-.248 1.298-.575.069-.07.119-.09.168-.04l.327.357c.04.04.04.09 0 .129a2.464 2.464 0 0 1-1.793.783c-1.368 0-2.339-.952-2.339-2.409Zm3.686-.496c-.129-.743-.684-1.249-1.446-1.249-.754 0-1.338.526-1.457 1.26-.02.079 0 .108.09.108H40.6c.08 0 .109-.03.09-.119ZM42.721 19.466c-.04-.05-.04-.1 0-.14l.337-.366c.04-.05.09-.05.14 0 .286.347.722.595 1.337.595.911 0 1.476-.407 1.476-1.299v-.684c0-.05-.05-.07-.099-.02-.337.328-.812.526-1.427.526-1.238 0-2.2-.922-2.2-2.31 0-1.368.981-2.29 2.24-2.29.614 0 1.1.198 1.437.555.05.05.089.03.089-.03v-.327c0-.059.05-.099.099-.099h.485c.06 0 .1.04.1.1v4.639c0 1.229-.922 1.903-2.2 1.903-.813 0-1.417-.307-1.814-.753Zm3.25-2.746c.04-.06.05-.11.05-.179v-1.536c0-.07-.01-.12-.05-.179-.257-.406-.723-.694-1.347-.694-.951 0-1.595.675-1.595 1.636 0 .981.644 1.646 1.595 1.646.624 0 1.09-.288 1.348-.694ZM48.062 11.962c0-.288.248-.536.545-.536.278 0 .525.248.525.536 0 .287-.247.545-.525.545a.557.557 0 0 1-.545-.545Zm.169 6.116v-4.402c0-.059.04-.099.099-.099h.525c.06 0 .1.04.1.1v4.4c0 .06-.04.1-.1.1h-.525c-.06 0-.1-.04-.1-.1ZM50.133 15.877c0-1.457.971-2.399 2.24-2.399 1.268 0 2.22.962 2.22 2.29 0 .07 0 .149-.01.228-.01.05-.04.08-.1.08h-3.498c-.069 0-.109.03-.089.128.11.863.694 1.428 1.576 1.428.545 0 .98-.248 1.298-.575.07-.07.119-.09.168-.04l.327.357c.04.04.04.09 0 .129a2.464 2.464 0 0 1-1.793.783c-1.368 0-2.339-.952-2.339-2.409Zm3.686-.496c-.129-.743-.683-1.249-1.446-1.249-.753 0-1.338.526-1.457 1.26-.02.079 0 .108.09.108h2.724c.08 0 .11-.03.09-.119ZM57.872 13.488c.06 0 .09.04.09.1v.525c0 .069-.04.099-.11.079-.08-.01-.168-.02-.238-.02-.515 0-.862.248-1.09.585a.396.396 0 0 0-.069.248v3.073c0 .06-.04.099-.1.099h-.524c-.06 0-.1-.04-.1-.1v-4.4c0-.06.04-.1.1-.1h.475c.06 0 .1.04.1.1v.356c0 .05.03.07.069.03a1.587 1.587 0 0 1 1.397-.575ZM58.387 15.877c0-1.457.971-2.399 2.24-2.399 1.268 0 2.22.962 2.22 2.29 0 .07 0 .149-.01.228-.01.05-.04.08-.1.08H59.24c-.07 0-.109.03-.089.128.11.863.694 1.428 1.576 1.428.545 0 .98-.248 1.298-.575.069-.07.119-.09.168-.04l.327.357c.04.04.04.09 0 .129a2.464 2.464 0 0 1-1.793.783c-1.368 0-2.339-.952-2.339-2.409Zm3.686-.496c-.129-.743-.684-1.249-1.446-1.249-.754 0-1.338.526-1.457 1.26-.02.079 0 .108.09.108h2.724c.08 0 .109-.03.09-.119ZM64.61 18.177h-.525c-.06 0-.1-.04-.1-.1v-4.4c0-.06.04-.1.1-.1h.475c.06 0 .1.04.1.1v.327c0 .05.039.069.079.02.297-.338.664-.546 1.199-.546 1.02 0 1.545.674 1.545 1.517v3.083c0 .06-.04.099-.099.099h-.525c-.06 0-.099-.04-.099-.1v-2.963c0-.644-.347-.991-.961-.991-.436 0-.803.237-1.04.654a.403.403 0 0 0-.05.208v3.093c0 .06-.04.099-.1.099ZM72.487 11h.525c.06 0 .1.04.1.1v6.978c0 .06-.04.099-.1.099h-.485c-.06 0-.1-.04-.1-.1v-.346c0-.07-.039-.08-.088-.02-.327.367-.823.565-1.467.565-1.278 0-2.26-.961-2.26-2.399 0-1.437.982-2.399 2.26-2.399.614 0 1.09.198 1.427.526.06.06.09.03.09-.03v-2.875c0-.06.039-.099.098-.099Zm-.138 5.888c.03-.06.04-.099.04-.158v-1.705c0-.06-.01-.1-.04-.159-.258-.436-.744-.734-1.368-.734-.98 0-1.635.704-1.635 1.745 0 1.041.654 1.745 1.635 1.745.624 0 1.11-.298 1.368-.734ZM74.192 15.877c0-1.457.97-2.399 2.239-2.399 1.268 0 2.22.962 2.22 2.29 0 .07 0 .149-.01.228-.01.05-.04.08-.1.08h-3.497c-.07 0-.11.03-.09.128.11.863.694 1.428 1.576 1.428.545 0 .981-.248 1.298-.575.07-.07.119-.09.168-.04l.327.357c.04.04.04.09 0 .129a2.464 2.464 0 0 1-1.793.783c-1.367 0-2.338-.952-2.338-2.409Zm3.686-.496c-.13-.743-.684-1.249-1.447-1.249-.753 0-1.338.526-1.457 1.26-.02.079 0 .108.09.108h2.724c.08 0 .11-.03.09-.119ZM86.617 13.072a1.7 1.7 0 0 1-.842 1.477c-.07.04-.06.08 0 .109.594.297.99.892.99 1.616 0 1.07-.723 1.903-2.12 1.903h-2.001c-.06 0-.1-.04-.1-.1v-6.74c0-.06.04-.1.1-.1h1.981c1.289 0 1.992.804 1.992 1.835Zm-3.34-1.08v2.25c0 .03.02.05.05.05h1.21c.871 0 1.317-.447 1.317-1.17 0-.724-.446-1.18-1.318-1.18h-1.209c-.03 0-.05.02-.05.05Zm0 3.052v2.38c0 .03.02.05.05.05h1.249c.951 0 1.427-.477 1.427-1.24s-.476-1.24-1.427-1.24h-1.249c-.03 0-.05.02-.05.05ZM90.868 13.577h.525c.06 0 .1.04.1.1v4.4c0 .06-.04.1-.1.1h-.476c-.059 0-.099-.04-.099-.1v-.326c0-.05-.04-.07-.089-.02-.287.337-.654.545-1.199.545-1.01 0-1.536-.674-1.536-1.517v-3.083c0-.059.04-.099.1-.099h.525c.06 0 .099.04.099.1v2.963c0 .645.347.992.96.992.437 0 .803-.238 1.041-.655.04-.079.05-.128.05-.208v-3.093c0-.059.04-.099.099-.099Zm-2.626-1.615a.54.54 0 0 1 .535-.536c.288 0 .535.248.535.536a.555.555 0 0 1-.535.545.548.548 0 0 1-.535-.545Zm1.952 0a.54.54 0 0 1 .535-.536c.288 0 .535.248.535.536a.555.555 0 0 1-.535.545.548.548 0 0 1-.535-.545ZM95.139 13.488c.059 0 .089.04.089.1v.525c0 .069-.04.099-.11.079-.079-.01-.168-.02-.237-.02-.515 0-.862.248-1.09.585a.396.396 0 0 0-.07.248v3.073c0 .06-.039.099-.098.099h-.526c-.06 0-.099-.04-.099-.1v-4.4c0-.06.04-.1.1-.1h.475c.06 0 .1.04.1.1v.356c0 .05.029.07.068.03a1.587 1.587 0 0 1 1.398-.575ZM96.12 19.466c-.04-.05-.04-.1 0-.14l.336-.366c.04-.05.09-.05.14 0 .287.347.722.595 1.337.595.911 0 1.476-.407 1.476-1.299v-.684c0-.05-.05-.07-.099-.02-.337.328-.812.526-1.427.526-1.238 0-2.2-.922-2.2-2.31 0-1.368.982-2.29 2.24-2.29.614 0 1.1.198 1.437.555.05.05.089.03.089-.03v-.327c0-.059.05-.099.099-.099h.485c.06 0 .1.04.1.1v4.639c0 1.229-.922 1.903-2.2 1.903-.813 0-1.417-.307-1.813-.753Zm3.25-2.746c.04-.06.05-.11.05-.179v-1.536c0-.07-.01-.12-.05-.179-.258-.406-.724-.694-1.348-.694-.951 0-1.595.675-1.595 1.636 0 .981.644 1.646 1.595 1.646.624 0 1.09-.288 1.348-.694ZM101.302 15.877c0-1.457.97-2.399 2.24-2.399 1.267 0 2.219.962 2.219 2.29 0 .07 0 .149-.01.228-.01.05-.04.08-.1.08h-3.497c-.07 0-.11.03-.09.128.11.863.694 1.428 1.576 1.428.545 0 .981-.248 1.298-.575.07-.07.12-.09.169-.04l.327.357c.04.04.04.09 0 .129a2.464 2.464 0 0 1-1.794.783c-1.367 0-2.338-.952-2.338-2.409Zm3.686-.496c-.129-.743-.684-1.249-1.447-1.249-.753 0-1.338.526-1.456 1.26-.02.079 0 .108.089.108h2.725c.079 0 .109-.03.089-.119ZM109.04 13.488c.06 0 .09.04.09.1v.525c0 .069-.04.099-.11.079-.079-.01-.168-.02-.237-.02-.515 0-.862.248-1.09.585a.396.396 0 0 0-.07.248v3.073c0 .06-.04.099-.099.099H107c-.06 0-.099-.04-.099-.1v-4.4c0-.06.04-.1.1-.1h.475c.06 0 .099.04.099.1v.356c0 .05.03.07.07.03a1.587 1.587 0 0 1 1.396-.575ZM110.675 18.177h-.525c-.06 0-.099-.04-.099-.1v-4.4c0-.06.04-.1.1-.1h.475c.06 0 .099.04.099.1v.327c0 .05.04.069.08.02a1.5 1.5 0 0 1 1.198-.546c.664 0 1.11.298 1.358.704.03.05.06.05.099 0 .327-.406.703-.704 1.328-.704 1.01 0 1.535.674 1.535 1.517v3.083c0 .06-.04.099-.099.099h-.525c-.06 0-.099-.04-.099-.1v-2.963c0-.654-.357-.991-.971-.991-.456 0-.783.228-1.02.634a.498.498 0 0 0-.06.238v3.083c0 .06-.04.099-.1.099h-.524c-.06 0-.1-.04-.1-.1v-2.963c0-.644-.346-.991-.96-.991-.437 0-.803.237-1.04.654a.416.416 0 0 0-.05.218v3.083c0 .06-.04.099-.1.099ZM117.443 15.877c0-1.457.971-2.399 2.24-2.399 1.268 0 2.219.962 2.219 2.29 0 .07 0 .149-.01.228-.01.05-.04.08-.099.08h-3.498c-.07 0-.109.03-.089.128.11.863.694 1.428 1.576 1.428.545 0 .98-.248 1.298-.575.069-.07.118-.09.168-.04l.327.357c.04.04.04.09 0 .129a2.464 2.464 0 0 1-1.793.783c-1.368 0-2.339-.952-2.339-2.409Zm3.686-.496c-.129-.743-.684-1.249-1.447-1.249-.753 0-1.337.526-1.456 1.26-.02.079 0 .108.09.108h2.724c.08 0 .109-.03.09-.119ZM122.873 11.962c0-.288.248-.536.545-.536.277 0 .525.248.525.536 0 .287-.248.545-.525.545a.557.557 0 0 1-.545-.545Zm.169 6.116v-4.402c0-.059.04-.099.099-.099h.525c.06 0 .099.04.099.1v4.4c0 .06-.04.1-.1.1h-.524c-.06 0-.1-.04-.1-.1ZM124.954 17.196c-.02-.06 0-.1.06-.12l.475-.168c.06-.02.109.01.129.07a.915.915 0 0 0 .882.674c.574 0 .852-.318.852-.724 0-.456-.337-.654-.803-.744l-.396-.079c-.674-.129-1.1-.644-1.1-1.298 0-.744.614-1.329 1.486-1.329.714 0 1.259.387 1.457 1.09.02.07-.01.11-.07.13l-.465.118c-.06.02-.11-.01-.12-.069-.098-.387-.376-.634-.802-.634-.465 0-.773.277-.773.664 0 .406.238.595.674.684l.387.08c.703.138 1.238.584 1.238 1.387 0 .773-.584 1.358-1.565 1.358-.813 0-1.338-.456-1.546-1.09ZM129.512 11.783l.535-.287c.07-.03.119 0 .119.069v1.963c0 .03.02.05.05.05h.544c.06 0 .1.039.1.098v.427c0 .06-.04.099-.1.099h-.545c-.03 0-.05.02-.05.05v3.826c0 .06-.039.099-.098.099h-.525c-.06 0-.1-.04-.1-.1v-3.826c0-.03-.02-.05-.049-.05h-.545c-.06 0-.1-.039-.1-.098v-.427c0-.059.04-.099.1-.099h.545c.03 0 .05-.02.05-.05v-1.625c0-.05.02-.1.069-.119ZM131.523 15.877c0-1.457.971-2.399 2.24-2.399 1.268 0 2.22.962 2.22 2.29 0 .07 0 .149-.01.228-.01.05-.04.08-.1.08h-3.497c-.07 0-.11.03-.09.128.11.863.694 1.428 1.576 1.428.545 0 .98-.248 1.298-.575.07-.07.119-.09.168-.04l.327.357c.04.04.04.09 0 .129a2.464 2.464 0 0 1-1.793.783c-1.368 0-2.339-.952-2.339-2.409Zm3.686-.496c-.128-.743-.683-1.249-1.446-1.249-.753 0-1.338.526-1.457 1.26-.02.079 0 .108.09.108h2.724c.08 0 .11-.03.09-.119ZM139.262 13.488c.06 0 .09.04.09.1v.525c0 .069-.04.099-.11.079-.079-.01-.168-.02-.238-.02-.515 0-.862.248-1.09.585a.396.396 0 0 0-.069.248v3.073c0 .06-.04.099-.099.099h-.525c-.06 0-.1-.04-.1-.1v-4.4c0-.06.04-.1.1-.1h.475c.06 0 .1.04.1.1v.356c0 .05.03.07.069.03a1.587 1.587 0 0 1 1.397-.575ZM140.104 11.962c0-.288.248-.536.545-.536.278 0 .525.248.525.536 0 .287-.247.545-.525.545a.557.557 0 0 1-.545-.545Zm.167 6.116v-4.402c0-.059.04-.099.099-.099h.525c.06 0 .1.04.1.1v4.4c0 .06-.04.1-.1.1h-.525c-.058 0-.1-.04-.1-.1ZM143.126 18.177h-.525c-.06 0-.099-.04-.099-.1v-4.4c0-.06.04-.1.1-.1h.475c.06 0 .099.04.099.1v.327c0 .05.04.069.08.02.297-.338.663-.546 1.198-.546 1.02 0 1.546.674 1.546 1.517v3.083c0 .06-.04.099-.1.099h-.524c-.06 0-.1-.04-.1-.1v-2.963c0-.644-.346-.991-.96-.991-.436 0-.803.237-1.04.654a.403.403 0 0 0-.05.208v3.093c0 .06-.04.099-.1.099ZM17.306 26.405h.555c.069 0 .099.04.079.109l-1.457 4.41c-.02.05-.07.08-.129.08h-.763c-.059 0-.109-.03-.128-.08l-1.457-4.41c-.02-.07.01-.11.08-.11h.554c.05 0 .1.03.12.08l1.178 3.658c.01.04.06.04.07 0l1.179-3.658c.02-.05.07-.08.119-.08ZM18.564 28.704c0-1.318.981-2.399 2.319-2.399 1.337 0 2.318 1.081 2.318 2.4 0 1.318-.98 2.398-2.318 2.398s-2.319-1.08-2.319-2.399Zm3.904 0c0-.951-.644-1.734-1.585-1.734-.942 0-1.586.783-1.586 1.734 0 .952.644 1.735 1.586 1.735.941 0 1.585-.783 1.585-1.735ZM25.005 31.004h-.525c-.06 0-.1-.04-.1-.099v-4.401c0-.06.04-.1.1-.1h.475c.06 0 .1.04.1.1v.327c0 .05.039.07.079.02.297-.337.663-.546 1.198-.546 1.021 0 1.546.675 1.546 1.517v3.083c0 .06-.04.1-.099.1h-.525c-.06 0-.1-.04-.1-.1v-2.964c0-.644-.346-.991-.96-.991-.436 0-.803.238-1.04.654a.403.403 0 0 0-.05.208v3.093c0 .06-.04.1-.1.1ZM36.162 25.9a1.7 1.7 0 0 1-.842 1.476c-.07.04-.06.08 0 .11.594.297.99.891.99 1.615 0 1.07-.723 1.903-2.12 1.903H32.19c-.06 0-.1-.04-.1-.099v-6.74c0-.06.04-.1.1-.1h1.981c1.288 0 1.992.803 1.992 1.834Zm-3.34-1.081v2.25c0 .03.02.05.05.05h1.21c.871 0 1.317-.447 1.317-1.17 0-.724-.446-1.18-1.318-1.18h-1.209c-.03 0-.05.02-.05.05Zm0 3.053v2.379c0 .03.02.05.05.05h1.249c.951 0 1.427-.476 1.427-1.24 0-.763-.476-1.239-1.427-1.239h-1.249c-.03 0-.05.02-.05.05ZM37.341 28.704c0-1.457.971-2.399 2.24-2.399 1.268 0 2.219.962 2.219 2.29 0 .07 0 .15-.01.228-.01.05-.04.08-.099.08h-3.498c-.07 0-.109.03-.089.129.109.862.694 1.427 1.576 1.427.544 0 .98-.248 1.298-.575.069-.07.118-.09.168-.04l.327.357c.04.04.04.09 0 .13a2.464 2.464 0 0 1-1.793.782c-1.368 0-2.339-.951-2.339-2.409Zm3.686-.495c-.129-.744-.684-1.25-1.447-1.25-.753 0-1.337.526-1.456 1.26-.02.079 0 .109.089.109h2.725c.08 0 .109-.03.09-.12ZM45.08 26.315c.06 0 .089.04.089.1v.525c0 .07-.04.1-.11.08-.078-.01-.168-.02-.237-.02-.515 0-.862.247-1.09.584a.396.396 0 0 0-.07.248v3.073c0 .06-.039.1-.098.1h-.525c-.06 0-.1-.04-.1-.1v-4.401c0-.06.04-.1.1-.1h.475c.06 0 .1.04.1.1v.357c0 .05.029.069.069.03a1.587 1.587 0 0 1 1.397-.576ZM47.32 30.499v.446c0 .06-.04.099-.1.099h-.178c-.605 0-.981-.278-.981-.912v-6.206c0-.06.04-.099.099-.099h.525c.06 0 .1.04.1.1v6.116c0 .218.078.357.296.357h.139c.06 0 .1.04.1.099ZM48.28 24.789c0-.288.248-.535.545-.535.278 0 .525.247.525.535 0 .287-.247.545-.525.545a.557.557 0 0 1-.545-.545Zm.169 6.116v-4.401c0-.06.04-.1.099-.1h.525c.06 0 .1.04.1.1v4.401c0 .06-.04.1-.1.1h-.525c-.06 0-.1-.04-.1-.1ZM51.302 31.004h-.525c-.06 0-.099-.04-.099-.099v-4.401c0-.06.04-.1.1-.1h.475c.06 0 .099.04.099.1v.327c0 .05.04.07.08.02.296-.337.663-.546 1.198-.546 1.02 0 1.546.675 1.546 1.517v3.083c0 .06-.04.1-.1.1h-.524c-.06 0-.1-.04-.1-.1v-2.964c0-.644-.346-.991-.96-.991-.437 0-.803.238-1.04.654a.403.403 0 0 0-.05.208v3.093c0 .06-.04.1-.1.1ZM14.174 42.434c-.02-.06 0-.1.06-.13l.505-.207c.06-.03.11 0 .13.06.207.713.792 1.13 1.545 1.13.97 0 1.466-.556 1.466-1.28 0-.773-.515-1.209-1.278-1.358l-.505-.099c-1.03-.198-1.714-.852-1.714-1.903 0-1.05.852-1.923 2.08-1.923 1.001 0 1.754.555 2.081 1.427.02.06 0 .1-.06.13l-.514.217c-.06.03-.11 0-.13-.06-.237-.614-.762-1-1.377-1-.832 0-1.308.515-1.308 1.2 0 .614.357 1.04 1.1 1.179l.506.099c.99.198 1.892.813 1.892 2.042 0 1.15-.852 2.042-2.25 2.042-1.04 0-1.892-.585-2.229-1.566ZM19.585 41.532c0-1.458.97-2.4 2.239-2.4 1.268 0 2.22.962 2.22 2.29 0 .07 0 .15-.01.229-.01.05-.04.079-.1.079h-3.497c-.07 0-.11.03-.09.129.11.862.694 1.427 1.576 1.427.545 0 .981-.248 1.298-.575.07-.07.119-.089.169-.04l.327.358c.04.04.04.089 0 .128a2.464 2.464 0 0 1-1.794.784c-1.367 0-2.338-.952-2.338-2.41Zm3.686-.496c-.13-.743-.684-1.249-1.447-1.249-.753 0-1.338.525-1.457 1.259-.02.08 0 .109.09.109h2.724c.08 0 .11-.03.09-.119ZM25.807 43.831h-.525c-.06 0-.099-.04-.099-.099v-4.401c0-.06.04-.1.1-.1h.475c.06 0 .099.04.099.1v.327c0 .05.04.07.08.02.296-.337.663-.545 1.198-.545 1.02 0 1.546.674 1.546 1.516v3.083c0 .06-.04.1-.1.1h-.524c-.06 0-.1-.04-.1-.1v-2.964c0-.644-.346-.99-.96-.99-.437 0-.803.237-1.041.653a.403.403 0 0 0-.05.209v3.092c0 .06-.04.1-.099.1ZM29.81 41.532c0-1.438.981-2.4 2.26-2.4.654 0 1.159.219 1.496.615.03.03.06.01.06-.03v-.386c0-.06.039-.1.098-.1h.486c.06 0 .099.04.099.1v4.401c0 .06-.04.1-.1.1h-.485c-.06 0-.099-.04-.099-.1v-.386c0-.04-.03-.06-.06-.03a2.023 2.023 0 0 1-1.495.615c-1.279 0-2.26-.962-2.26-2.4Zm3.736 1.01c.03-.059.04-.098.04-.178V40.7a.34.34 0 0 0-.04-.178c-.248-.437-.743-.734-1.367-.734-.981 0-1.635.704-1.635 1.745 0 1.04.654 1.744 1.635 1.744.624 0 1.14-.287 1.367-.733ZM36.122 37.438l.535-.288c.07-.03.12 0 .12.07v1.962c0 .03.02.05.049.05h.545c.06 0 .099.04.099.099v.426c0 .06-.04.1-.1.1h-.544c-.03 0-.05.02-.05.049v3.826c0 .06-.04.1-.099.1h-.525c-.06 0-.1-.04-.1-.1v-3.826c0-.03-.019-.05-.049-.05h-.545c-.06 0-.099-.04-.099-.099v-.426c0-.06.04-.1.1-.1h.544c.03 0 .05-.019.05-.049v-1.625c0-.05.02-.1.07-.12ZM38.154 42.85c-.02-.06 0-.099.059-.119l.476-.168c.06-.02.109.01.128.069a.915.915 0 0 0 .882.674c.575 0 .852-.317.852-.724 0-.456-.336-.654-.802-.743l-.396-.08c-.674-.128-1.1-.644-1.1-1.298 0-.743.614-1.328 1.486-1.328.713 0 1.258.386 1.457 1.09.02.07-.01.11-.07.13l-.466.118c-.059.02-.109-.01-.118-.07-.1-.386-.377-.634-.803-.634-.466 0-.773.278-.773.664 0 .407.238.595.674.684l.386.08c.704.138 1.239.585 1.239 1.387 0 .774-.585 1.359-1.566 1.359-.812 0-1.337-.456-1.545-1.09ZM44.96 43.742l-1.178-1.982c-.03-.06-.08-.07-.12-.02l-.415.496c-.05.069-.06.099-.06.178v1.318c0 .06-.05.1-.109.1h-.515c-.06 0-.1-.04-.1-.1v-6.978c0-.06.04-.1.1-.1h.515c.06 0 .11.04.11.1v4.391c0 .08.049.09.098.02l1.546-1.874c.03-.04.07-.06.119-.06h.684c.079 0 .119.06.06.13l-1.388 1.665c-.05.06-.06.1-.02.169l1.496 2.518c.04.069.01.118-.07.118h-.604a.154.154 0 0 1-.148-.089ZM46.328 41.532c0-1.438.981-2.4 2.26-2.4.653 0 1.159.219 1.496.615.03.03.06.01.06-.03v-.386c0-.06.039-.1.098-.1h.486c.06 0 .099.04.099.1v4.401c0 .06-.04.1-.1.1h-.485c-.06 0-.099-.04-.099-.1v-.386c0-.04-.03-.06-.06-.03a2.023 2.023 0 0 1-1.496.615c-1.278 0-2.259-.962-2.259-2.4Zm3.736 1.01c.03-.059.04-.098.04-.178V40.7a.34.34 0 0 0-.04-.178c-.248-.437-.743-.734-1.368-.734-.98 0-1.635.704-1.635 1.745 0 1.04.654 1.744 1.635 1.744.625 0 1.14-.287 1.368-.733ZM52.967 43.831h-.525c-.06 0-.1-.04-.1-.099v-4.401c0-.06.04-.1.1-.1h.476c.059 0 .099.04.099.1v.327c0 .05.04.07.079.02.297-.337.664-.545 1.199-.545 1.02 0 1.546.674 1.546 1.516v3.083c0 .06-.04.1-.1.1h-.525c-.06 0-.099-.04-.099-.1v-2.964c0-.644-.347-.99-.96-.99-.437 0-.803.237-1.041.653a.403.403 0 0 0-.05.209v3.092c0 .06-.04.1-.099.1ZM58.04 43.207h2.388c.06 0 .1.04.1.109v.416c0 .06-.04.1-.1.1H57.01c-.12 0-.149-.1-.09-.199l2.359-3.717c.02-.04.01-.06-.03-.06H57c-.059 0-.098-.04-.098-.099v-.426c0-.06.04-.1.099-.1h3.29c.109 0 .138.1.079.2L58 43.146c-.02.04 0 .06.04.06ZM62.797 43.326v.446c0 .06-.04.1-.1.1h-.178c-.604 0-.98-.278-.98-.913v-6.205c0-.06.039-.1.098-.1h.525c.06 0 .1.04.1.1v6.116c0 .218.079.357.297.357h.138c.06 0 .1.04.1.099ZM63.51 41.532c0-1.458.971-2.4 2.24-2.4 1.268 0 2.219.962 2.219 2.29 0 .07 0 .15-.01.229-.01.05-.04.079-.1.079h-3.497c-.07 0-.109.03-.09.129.11.862.695 1.427 1.576 1.427.545 0 .981-.248 1.298-.575.07-.07.12-.089.169-.04l.327.358c.04.04.04.089 0 .128a2.464 2.464 0 0 1-1.794.784c-1.367 0-2.338-.952-2.338-2.41Zm3.686-.496c-.129-.743-.684-1.249-1.447-1.249-.753 0-1.337.525-1.456 1.259-.02.08 0 .109.089.109h2.725c.08 0 .109-.03.089-.119ZM68.94 37.616c0-.287.248-.535.545-.535.277 0 .525.248.525.535 0 .288-.248.545-.525.545a.557.557 0 0 1-.545-.545Zm.168 6.116v-4.401c0-.06.04-.1.1-.1h.525c.06 0 .099.04.099.1v4.401c0 .06-.04.1-.1.1h-.525c-.059 0-.099-.04-.099-.1Z"/></g></g></svg>