<svg width="336" height="56" xmlns="http://www.w3.org/2000/svg"><g fill-rule="nonzero" fill="none"><path fill="#FFF" d="M1 1h335v55H1z"/><path d="M0 0v56h336V0H0Zm167.999 54.882H1.12V1.12H168v53.762Zm112 0h-110.88V1.12H280v53.762Zm54.88 0h-53.76V1.12h53.76v53.762Z" fill="#000"/><path d="M263.753 17.326v12.563c0 .163-.107.217-.187.054l-7.025-12.726a.472.472 0 0 0-.4-.217h-3.007c-.187 0-.32.135-.32.326V35.67c0 .19.133.326.32.326h2.609c.187 0 .319-.137.319-.326V23.133c0-.163.106-.217.187-.054l7.025 12.7c.08.136.24.217.4.217h3.007c.187 0 .319-.137.319-.326V17.326c0-.191-.132-.326-.32-.326h-2.608a.312.312 0 0 0-.32.326m-18.8 18.67h2.634c.186 0 .32-.137.32-.326V17.326c0-.191-.132-.326-.32-.326h-2.633c-.186 0-.32.135-.32.326V35.67c.002.19.134.326.32.326m-10.505-3.31v-15.36c0-.191-.132-.326-.32-.326h-2.633c-.185 0-.32.135-.32.326V35.67c0 .19.133.326.32.326h9.073c.187 0 .32-.137.32-.326v-2.497c0-.19-.133-.326-.32-.326h-5.96c-.106 0-.16-.08-.16-.161m-17.21-12.537h2.422c2.155 0 3.884 1.167 3.884 3.582s-1.73 3.582-3.912 3.582h-2.395c-.107 0-.16-.08-.16-.163v-6.838c.002-.108.055-.163.162-.163m6.173 15.847h3.351c.266 0 .345-.191.188-.407l-3.993-5.507c-.053-.08-.053-.19.054-.244 2.367-.976 3.939-3.12 3.939-6.105 0-4.234-3.141-6.729-7.131-6.729h-5.694c-.187 0-.32.135-.32.326v18.344c0 .19.133.326.32.326h2.634c.185 0 .32-.137.32-.326v-5.047c0-.108.078-.163.159-.163h2.023c.08 0 .16.055.213.109l3.566 5.21c.079.13.211.213.37.213m-14.443-16.173v-2.497c0-.191-.132-.326-.319-.326h-9.686c-.187 0-.32.135-.32.326V35.67c0 .19.133.326.32.326h9.686c.187 0 .32-.137.32-.326v-2.497c0-.19-.133-.326-.32-.326h-6.599c-.106 0-.16-.08-.16-.163v-4.56c0-.109.081-.163.16-.163h6.599c.187 0 .32-.135.32-.326v-2.47c0-.19-.133-.325-.32-.325h-6.599c-.106 0-.16-.054-.16-.163v-4.369c0-.108.081-.163.16-.163h6.599c.187.004.32-.133.32-.322m-20.745 13.024h-2.821c-.107 0-.16-.08-.16-.163v-4.56c0-.109.053-.163.16-.163h2.821c1.73 0 2.687 1.004 2.687 2.443 0 1.467-.958 2.443-2.687 2.443m-.266-12.698c1.676 0 2.606.924 2.606 2.334 0 1.411-.93 2.36-2.606 2.36h-2.555c-.107 0-.16-.053-.16-.162v-4.369c0-.108.053-.163.16-.163h2.555Zm3.886 5.969c1.33-.868 2.129-2.226 2.129-3.989 0-2.903-1.97-5.129-5.587-5.129h-6.067c-.185 0-.319.135-.319.326V35.67c0 .19.132.326.32.326h6.306c3.724 0 5.694-2.306 5.694-5.345 0-1.98-.93-3.473-2.474-4.314-.11-.082-.11-.165-.002-.22" fill="#E30923"/><path d="M314.995 43.192s-.953-6.57-1.403-9.339l.196-.044c.417-.076.575-.571.388-.905-1.078-1.931-1.463-4.336-1.463-6.725 0-1.473.237-2.888.675-4.207.025-.076.052-.15.079-.226.015-.046.046-.148.054-.164.29-.658.815-2.085.969-3.684.127-1.293-.033-2.373-.25-3.384-.104-.49-.37-1.296-.539-1.67l-.086-.16c.388-.405.465-1.055.165-1.595-.352-.631-1.074-.881-1.615-.557-.057.034-.19.132-.25.176-.098-.076-.155-.112-.155-.112-.004-.002-.152-.104-.283-.176 0 0-.05-.026-.05-.028a4.252 4.252 0 0 0-1.801-.392c-.316 0-.623.034-.923.098a4.394 4.394 0 0 0-1.75.816c-.267.087-.554.11-.554.11l-.73.035c-.344.016-.737-.002-.737-.002a.319.319 0 0 0-.311.324c0 .016.113 1.062.113 1.064.027.262.133.507.345.65l.025.017c.067.046.101.084.115.124.08.228.244.454.354.524.05.032.129.016.142-.042.138-.57.465.046 1.088-.306.16-.09.246.314.179.49l-.058.152a.995.995 0 0 1-.773.636c-.275.041-.434.07-.43.11.032.321-.004.6.311.793a.671.671 0 0 0 .139.064c.482.132 1.89.694.1 2.89 0 0-.17.198-.302.394a1.06 1.06 0 0 0-.098.178l-.037.08-5.383-2.095a1.258 1.258 0 0 1-.471-.398l-.53-.947c-.33-.474-.618-.654-1.189-.702-.413-.036-.75-.002-.75-.002-.16.008-.252.048-.286.144-.037.106-.04.37.117.702l.461.881c.04.062.623 1.418.623 1.418a.995.995 0 0 0 .289.427c.011.01 5.525 4.342 5.525 4.342l-5.823 3.02a.691.691 0 0 1-.548.059l-.521-.164c-.954-.442-1.671-.134-2.09.231l-.165.162c-.16.164-.1.388.08.48 0 0 .92.562 1.121.706l1.43.881c.222.134.485.178.737.124l5.654-1.185c.137 2.25.683 4.122.683 4.122-1.02 1.02-2.425 2.964-2.886 5.635-.275 1.587-.185 3.026.23 4.715-.79.046-1.55.166-2.183.624-.602.436-.725 1.211-.729 1.599l4.414.01.373-.002c.466-.006.585-.486.585-.486.046-.146.06-.336.08-.475.14-.918.252-1.873 1.039-3.52.634-1.332 1.757-2.53 1.759-2.53.002.005 1.857 2.861 4.995 4.82-.602.04-1.379.246-1.84.512-.73.422-.933 1.29-.915 1.693h4.574a.71.71 0 0 0 .703-.66.763.763 0 0 0-.002-.148ZM13.07 16.8c-.02-.06 0-.1.059-.13l.504-.208c.06-.03.109 0 .129.06.207.716.791 1.134 1.543 1.134.97 0 1.464-.557 1.464-1.284 0-.776-.515-1.213-1.276-1.363l-.505-.1c-1.028-.198-1.711-.855-1.711-1.91 0-1.054.85-1.93 2.077-1.93 1 0 1.751.558 2.078 1.433.02.06 0 .1-.06.13l-.514.218c-.06.03-.109 0-.129-.06-.237-.616-.761-1.004-1.375-1.004-.83 0-1.305.517-1.305 1.204 0 .617.356 1.044 1.098 1.184l.504.1c.99.198 1.89.815 1.89 2.049 0 1.154-.851 2.05-2.246 2.05-1.039 0-1.89-.588-2.226-1.573Zm5.4-.905c0-1.463.97-2.408 2.236-2.408 1.266 0 2.216.965 2.216 2.298 0 .07 0 .15-.01.23-.01.049-.04.079-.1.079h-3.491c-.07 0-.109.03-.089.13.109.865.692 1.432 1.573 1.432.544 0 .98-.249 1.296-.577.069-.07.118-.09.168-.04l.326.358c.04.04.04.09 0 .13a2.454 2.454 0 0 1-1.79.785c-1.365 0-2.335-.955-2.335-2.417Zm3.68-.498c-.128-.746-.682-1.253-1.444-1.253-.752 0-1.336.527-1.454 1.263-.02.08 0 .11.089.11h2.72c.08 0 .109-.03.09-.12Zm2.532 2.806h-.524c-.06 0-.099-.04-.099-.1v-4.417c0-.06.04-.1.1-.1h.474c.06 0 .099.04.099.1v.328c0 .05.04.07.08.02.296-.338.662-.547 1.196-.547 1.019 0 1.543.677 1.543 1.522v3.094c0 .06-.04.1-.099.1h-.524c-.06 0-.099-.04-.099-.1V15.13c0-.647-.346-.995-.96-.995-.435 0-.8.239-1.038.657-.04.08-.05.129-.05.208v3.104c0 .06-.04.1-.099.1Zm3.997-2.308c0-1.443.98-2.408 2.255-2.408.653 0 1.158.22 1.494.617.03.03.06.01.06-.03v-.388c0-.06.039-.1.098-.1h.485c.06 0 .099.04.099.1v4.417c0 .06-.04.1-.1.1h-.484c-.06 0-.099-.04-.099-.1v-.388c0-.04-.03-.06-.06-.03-.365.369-.84.617-1.493.617-1.276 0-2.255-.965-2.255-2.407Zm3.73 1.015c.029-.06.039-.1.039-.18v-1.67c0-.08-.01-.12-.04-.18-.247-.438-.742-.736-1.365-.736-.98 0-1.632.706-1.632 1.75 0 1.045.653 1.752 1.632 1.752.623 0 1.138-.289 1.365-.736Zm2.571-5.124.534-.289c.07-.03.119 0 .119.07v1.97c0 .03.02.05.05.05h.543c.06 0 .1.04.1.1v.427c0 .06-.04.1-.1.1h-.544c-.03 0-.05.02-.05.05v3.84c0 .06-.039.099-.098.099h-.524c-.06 0-.1-.04-.1-.1v-3.84c0-.03-.019-.05-.049-.05h-.544c-.06 0-.099-.04-.099-.099v-.428c0-.06.04-.1.1-.1h.543c.03 0 .05-.02.05-.049v-1.632c0-.05.02-.1.07-.119Zm2.028 5.432c-.02-.06 0-.1.06-.12l.474-.168c.06-.02.109.01.129.07a.914.914 0 0 0 .88.676c.574 0 .85-.319.85-.727 0-.457-.336-.656-.8-.746l-.396-.08c-.673-.129-1.098-.646-1.098-1.303 0-.746.613-1.333 1.484-1.333.712 0 1.256.388 1.454 1.095.02.07-.01.109-.07.129l-.464.12c-.06.02-.11-.01-.12-.07-.098-.388-.375-.637-.8-.637-.465 0-.772.279-.772.667 0 .407.237.596.673.686l.386.08c.702.139 1.236.587 1.236 1.392 0 .776-.584 1.363-1.563 1.363-.811 0-1.335-.457-1.543-1.094Zm7.033-3.631h.554c.07 0 .099.04.08.11l-1.455 4.426c-.02.05-.07.08-.128.08h-.762c-.06 0-.109-.03-.129-.08l-1.454-4.427c-.02-.07.01-.11.08-.11h.553c.05 0 .1.03.119.08l1.177 3.671c.01.04.06.04.07 0l1.176-3.67c.02-.05.07-.08.12-.08Zm1.266 2.308c0-1.463.97-2.408 2.236-2.408 1.266 0 2.216.965 2.216 2.298 0 .07 0 .15-.01.23-.01.049-.04.079-.1.079h-3.491c-.07 0-.109.03-.089.13.109.865.692 1.432 1.573 1.432.544 0 .98-.249 1.296-.577.069-.07.118-.09.168-.04l.326.358c.04.04.04.09 0 .13a2.454 2.454 0 0 1-1.79.785c-1.365 0-2.335-.955-2.335-2.417Zm3.68-.498c-.128-.746-.682-1.253-1.444-1.253-.752 0-1.336.527-1.454 1.263-.02.08 0 .11.089.11h2.72c.08 0 .109-.03.09-.12Zm4.046-1.9c.06 0 .089.04.089.1v.527c0 .07-.04.1-.109.08-.079-.01-.168-.02-.237-.02-.515 0-.86.248-1.088.587-.06.09-.07.159-.07.248v3.084c0 .06-.04.1-.099.1h-.524c-.06 0-.099-.04-.099-.1v-4.417c0-.06.04-.1.1-.1h.474c.06 0 .099.04.099.1v.358c0 .05.03.07.07.03a1.58 1.58 0 0 1 1.246-.587c.05 0 .099 0 .148.01Zm5.708.09h.534c.07 0 .109.04.089.11l-1.108 4.416c-.01.06-.05.09-.109.09h-.692c-.07 0-.11-.04-.129-.11l-.811-3.173c-.01-.04-.06-.04-.07 0l-.81 3.174c-.02.07-.06.109-.129.109h-.692c-.06 0-.1-.03-.11-.09l-1.107-4.417c-.02-.07.02-.11.089-.11h.534c.07 0 .109.03.119.09l.82 3.492c.01.05.05.05.06 0l.89-3.492c.02-.06.05-.09.11-.09h.523c.06 0 .09.03.11.09l.89 3.492c.01.05.049.05.059 0l.821-3.492c.01-.06.05-.09.119-.09Zm1.365 2.308c0-1.443.98-2.408 2.255-2.408.653 0 1.158.22 1.494.617.03.03.06.01.06-.03v-.388c0-.06.039-.1.098-.1h.485c.06 0 .099.04.099.1v4.417c0 .06-.04.1-.1.1h-.484c-.06 0-.099-.04-.099-.1v-.388c0-.04-.03-.06-.06-.03-.365.369-.84.617-1.493.617-1.276 0-2.255-.965-2.255-2.407Zm3.73 1.015c.029-.06.039-.1.039-.18v-1.67c0-.08-.01-.12-.04-.18-.247-.438-.742-.736-1.365-.736-.98 0-1.632.706-1.632 1.75 0 1.045.653 1.752 1.632 1.752.623 0 1.138-.289 1.365-.736Zm3.5.786v.447c0 .06-.039.1-.098.1h-.178c-.604 0-.98-.279-.98-.916V11.1c0-.06.04-.099.1-.099h.524c.06 0 .099.04.099.1v6.138c0 .219.079.358.296.358h.139c.06 0 .099.04.099.1Zm1.405-5.91.535-.289c.069-.03.118 0 .118.07v1.97c0 .03.02.05.05.05h.544c.06 0 .099.04.099.1v.427c0 .06-.04.1-.1.1h-.543c-.03 0-.05.02-.05.05v3.84c0 .06-.04.099-.099.099h-.524c-.06 0-.099-.04-.099-.1v-3.84c0-.03-.02-.05-.05-.05h-.543c-.06 0-.1-.04-.1-.099v-.428c0-.06.04-.1.1-.1h.544c.03 0 .05-.02.05-.049v-1.632c0-.05.019-.1.068-.119Zm5.204 1.8h.524c.06 0 .099.04.099.1v4.417c0 .06-.04.1-.099.1h-.475c-.06 0-.099-.04-.099-.1v-.328c0-.05-.04-.07-.089-.02-.287.339-.653.547-1.197.547-1.009 0-1.533-.676-1.533-1.522v-3.094c0-.06.04-.1.099-.1h.524c.06 0 .1.04.1.1v2.975c0 .647.345.995.959.995.435 0 .8-.239 1.038-.657.04-.08.05-.13.05-.209v-3.104c0-.06.04-.1.099-.1Zm2.75 4.617h-.525c-.059 0-.099-.04-.099-.1v-4.417c0-.06.04-.1.1-.1h.474c.06 0 .1.04.1.1v.328c0 .05.039.07.078.02.297-.338.663-.547 1.197-.547 1.02 0 1.543.677 1.543 1.522v3.094c0 .06-.04.1-.099.1h-.524c-.06 0-.099-.04-.099-.1V15.13c0-.647-.346-.995-.96-.995-.435 0-.8.239-1.038.657-.04.08-.05.129-.05.208v3.104c0 .06-.039.1-.098.1Zm4.441 1.293c-.04-.05-.04-.1 0-.139l.337-.368c.04-.05.089-.05.138 0 .287.348.722.597 1.335.597.91 0 1.474-.408 1.474-1.303v-.687c0-.05-.05-.07-.099-.02-.336.328-.81.527-1.424.527-1.237 0-2.196-.925-2.196-2.318 0-1.373.98-2.298 2.236-2.298.613 0 1.098.2 1.434.557.05.05.089.03.089-.03v-.328c0-.06.05-.1.099-.1h.485c.059 0 .098.04.098.1v4.656c0 1.234-.92 1.91-2.196 1.91-.81 0-1.414-.308-1.81-.756Zm3.245-2.756a.29.29 0 0 0 .05-.179V15.02a.29.29 0 0 0-.05-.179c-.257-.408-.722-.696-1.346-.696-.95 0-1.592.676-1.592 1.641 0 .985.643 1.652 1.592 1.652.624 0 1.089-.289 1.346-.697ZM13.544 30.977v-3.84c0-.03-.02-.05-.05-.05H13.1c-.06 0-.099-.04-.099-.09v-.437c0-.06.04-.1.099-.1h.396c.03 0 .05-.02.05-.05v-1.472c0-.716.365-1.174 1.067-1.174.198 0 .386.06.544.13.06.03.09.06.07.12l-.139.467c-.02.07-.069.07-.128.04a.659.659 0 0 0-.287-.08c-.248 0-.406.179-.406.537v1.433c0 .03.02.05.05.05h.613c.06 0 .099.04.099.099v.438c0 .05-.04.09-.1.09h-.612c-.03 0-.05.02-.05.049v3.84c0 .06-.04.1-.089.1h-.534c-.06 0-.099-.04-.099-.1Zm5.292-4.517h.525c.059 0 .098.04.098.1v4.417c0 .06-.04.1-.098.1h-.475c-.06 0-.1-.04-.1-.1v-.328c0-.05-.039-.07-.088-.02-.287.338-.653.547-1.197.547-1.01 0-1.533-.676-1.533-1.522V26.56c0-.06.04-.1.099-.1h.524c.06 0 .099.04.099.1v2.975c0 .646.346.995.96.995.434 0 .8-.24 1.038-.657.04-.08.05-.13.05-.209V26.56c0-.06.039-.1.098-.1Zm-2.621-1.621a.54.54 0 0 1 .534-.537c.287 0 .534.248.534.537a.555.555 0 0 1-.534.547.549.549 0 0 1-.534-.547Zm1.949 0a.54.54 0 0 1 .534-.537c.287 0 .534.248.534.537a.555.555 0 0 1-.534.547.549.549 0 0 1-.534-.547ZM23.1 26.37c.06 0 .089.04.089.1v.527c0 .07-.04.1-.109.08-.08-.01-.168-.02-.237-.02-.515 0-.861.248-1.089.586-.059.09-.069.16-.069.25v3.083c0 .06-.04.1-.099.1h-.524c-.06 0-.099-.04-.099-.1V26.56c0-.06.04-.1.099-.1h.475c.06 0 .099.04.099.1v.358c0 .05.03.07.069.03a1.58 1.58 0 0 1 1.395-.577Zm4.273 4.616-1.563-6.765c-.02-.07.01-.11.09-.11h.563c.06 0 .099.04.109.09l1.276 5.651c.01.05.05.05.06 0l1.295-5.65c.01-.05.06-.09.119-.09h.524c.06 0 .109.04.119.09l1.296 5.65c.01.05.05.05.059 0l1.276-5.65c.01-.05.05-.09.109-.09h.564c.079 0 .109.04.089.109l-1.563 6.765c-.01.06-.05.09-.119.09h-.712c-.06 0-.109-.04-.119-.09l-1.226-5.322c-.01-.05-.06-.05-.07 0l-1.226 5.322c-.01.05-.06.09-.119.09h-.712c-.07 0-.109-.03-.119-.09Zm6.895-6.148c0-.289.247-.537.544-.537.277 0 .524.248.524.537 0 .288-.247.547-.524.547a.557.557 0 0 1-.544-.547Zm.168 6.138V26.56c0-.06.04-.1.099-.1h.524c.06 0 .1.04.1.1v4.417c0 .06-.04.1-.1.1h-.524c-.06 0-.099-.04-.099-.1Zm1.91-.885c-.02-.06 0-.1.059-.12l.474-.169c.06-.02.11.01.129.07a.914.914 0 0 0 .88.676c.574 0 .851-.318.851-.726 0-.457-.336-.656-.801-.746l-.396-.08c-.673-.129-1.098-.646-1.098-1.303 0-.746.613-1.333 1.484-1.333.712 0 1.256.388 1.454 1.094.02.07-.01.11-.07.13l-.464.12c-.06.019-.109-.01-.119-.07-.099-.389-.376-.637-.801-.637-.465 0-.772.278-.772.666 0 .408.238.597.673.687l.386.08c.702.139 1.236.586 1.236 1.392 0 .776-.583 1.363-1.563 1.363-.81 0-1.335-.457-1.543-1.094Zm3.986 0c-.02-.06 0-.1.059-.12l.475-.169c.06-.02.109.01.128.07a.914.914 0 0 0 .88.676c.575 0 .851-.318.851-.726 0-.457-.336-.656-.8-.746l-.396-.08c-.673-.129-1.098-.646-1.098-1.303 0-.746.613-1.333 1.483-1.333.713 0 1.257.388 1.454 1.094.02.07-.01.11-.069.13l-.465.12c-.059.019-.109-.01-.118-.07-.1-.389-.376-.637-.802-.637-.465 0-.771.278-.771.666 0 .408.237.597.672.687l.386.08c.703.139 1.237.586 1.237 1.392 0 .776-.584 1.363-1.563 1.363-.811 0-1.336-.457-1.543-1.094Zm3.976-1.323c0-1.463.97-2.408 2.236-2.408 1.266 0 2.216.965 2.216 2.298 0 .07 0 .15-.01.229-.01.05-.04.08-.1.08H45.16c-.07 0-.109.03-.09.129.11.865.693 1.433 1.574 1.433.544 0 .979-.25 1.296-.577.069-.07.118-.09.168-.04l.326.358c.04.04.04.09 0 .13a2.454 2.454 0 0 1-1.79.785c-1.365 0-2.335-.955-2.335-2.417Zm3.68-.498c-.129-.746-.683-1.253-1.444-1.253-.752 0-1.336.527-1.454 1.263-.02.08 0 .11.089.11h2.72c.08 0 .109-.03.089-.12Zm2.532 2.806h-.524c-.06 0-.099-.04-.099-.1V26.56c0-.06.04-.1.1-.1h.474c.06 0 .099.04.099.1v.328c0 .05.04.07.079.02.297-.338.663-.547 1.197-.547 1.019 0 1.543.677 1.543 1.522v3.094c0 .06-.04.1-.099.1h-.524c-.06 0-.099-.04-.099-.1v-2.974c0-.647-.346-.995-.96-.995-.435 0-.8.238-1.038.656-.04.08-.05.13-.05.21v3.103c0 .06-.04.1-.099.1Zm4.007-.985c-.02-.06 0-.1.059-.12l.475-.169c.06-.02.109.01.128.07a.914.914 0 0 0 .88.676c.575 0 .852-.318.852-.726 0-.457-.337-.656-.802-.746l-.395-.08c-.673-.129-1.098-.646-1.098-1.303 0-.746.613-1.333 1.483-1.333.713 0 1.257.388 1.455 1.094.02.07-.01.11-.07.13l-.465.12c-.059.019-.108-.01-.118-.07-.1-.389-.376-.637-.802-.637-.465 0-.771.278-.771.666 0 .408.237.597.672.687l.386.08c.703.139 1.237.586 1.237 1.392 0 .776-.584 1.363-1.563 1.363-.811 0-1.336-.457-1.543-1.094Zm6.271-3.731c.782 0 1.474.348 1.85.975.03.06.01.11-.04.14l-.425.238c-.05.03-.099.02-.138-.04-.248-.408-.703-.646-1.247-.646-.95 0-1.563.706-1.563 1.74 0 1.035.614 1.742 1.563 1.742.544 0 .98-.25 1.247-.647.04-.06.089-.07.138-.04l.425.239c.05.03.07.08.04.14-.326.656-1.068.974-1.85.974-1.335 0-2.295-.965-2.295-2.407 0-1.443.96-2.408 2.295-2.408Zm3.6 4.716h-.523c-.06 0-.1-.04-.1-.1v-7.004c0-.06.04-.1.1-.1h.524c.06 0 .099.04.099.1v2.866c0 .06.03.07.07.02a1.517 1.517 0 0 1 1.156-.498c1.02 0 1.544.677 1.544 1.522v3.094c0 .06-.04.1-.1.1h-.524c-.059 0-.099-.04-.099-.1v-2.974c0-.647-.346-.995-.96-.995-.434 0-.81.228-1.038.656-.04.08-.05.13-.05.21v3.103c0 .06-.039.1-.098.1Zm3.997-2.308c0-1.443.98-2.408 2.256-2.408.653 0 1.157.219 1.493.617.03.03.06.01.06-.03v-.388c0-.06.04-.1.099-.1h.484c.06 0 .1.04.1.1v4.417c0 .06-.04.1-.1.1h-.484c-.06 0-.1-.04-.1-.1v-.388c0-.04-.029-.06-.059-.03-.366.369-.84.617-1.493.617-1.276 0-2.256-.965-2.256-2.407Zm3.73 1.014c.03-.06.04-.1.04-.179v-1.671c0-.08-.01-.12-.04-.18-.248-.437-.742-.735-1.366-.735-.979 0-1.632.706-1.632 1.75 0 1.045.653 1.752 1.632 1.752.624 0 1.138-.289 1.366-.737Zm2.443 1.194v-3.84c0-.03-.02-.05-.05-.05h-.395c-.06 0-.1-.04-.1-.09v-.437c0-.06.04-.1.1-.1h.395c.03 0 .05-.02.05-.05v-1.472c0-.716.366-1.174 1.068-1.174.198 0 .386.06.544.13.06.03.09.06.07.12l-.139.467c-.02.07-.07.07-.129.04a.659.659 0 0 0-.286-.08c-.248 0-.406.179-.406.537v1.433c0 .03.02.05.05.05h.613c.06 0 .099.04.099.099v.438c0 .05-.04.09-.1.09h-.613c-.03 0-.049.02-.049.049v3.84c0 .06-.04.1-.089.1h-.534c-.06 0-.1-.04-.1-.1Zm2.78-6.317.534-.289c.069-.03.118 0 .118.07v1.97c0 .03.02.05.05.05h.544c.06 0 .099.04.099.099v.428c0 .06-.04.1-.1.1h-.543c-.03 0-.05.02-.05.049v3.84c0 .06-.04.1-.099.1h-.524c-.06 0-.099-.04-.099-.1v-3.84c0-.03-.02-.05-.05-.05h-.543c-.06 0-.1-.04-.1-.1v-.427c0-.06.04-.1.1-.1h.544c.03 0 .05-.02.05-.05v-1.63c0-.05.02-.1.069-.12Zm3.373 5.95c0 .407-.168.706-.347 1.014l-.741 1.283c-.03.06-.08.08-.139.04l-.336-.219c-.06-.04-.06-.08-.03-.13l.762-1.312c.04-.07.03-.1-.04-.13-.247-.08-.415-.318-.415-.607 0-.348.287-.636.643-.636.356 0 .643.258.643.696Zm7.152-2.399v-.507c0-.06.04-.1.099-.1h2.888c.06 0 .099.04.099.1-.099 2.189-1.464 3.542-3.433 3.542-1.948 0-3.462-1.492-3.462-3.651 0-2.16 1.514-3.652 3.492-3.652 1.227 0 2.265.528 2.879 1.413.04.05.03.1-.02.14l-.435.298c-.05.04-.1.03-.139-.02-.485-.716-1.315-1.104-2.285-1.104-1.593 0-2.73 1.174-2.73 2.925 0 1.75 1.137 2.925 2.7 2.925 1.346 0 2.335-.796 2.582-2.16.01-.03-.01-.049-.04-.049h-2.096c-.06 0-.1-.04-.1-.1Zm3.897.558c0-1.463.97-2.408 2.236-2.408 1.266 0 2.215.965 2.215 2.298 0 .07 0 .15-.01.229-.01.05-.039.08-.098.08H92.62c-.07 0-.109.03-.09.129.11.865.693 1.433 1.574 1.433.544 0 .979-.25 1.295-.577.07-.07.12-.09.169-.04l.326.358c.04.04.04.09 0 .13a2.454 2.454 0 0 1-1.79.785c-1.365 0-2.335-.955-2.335-2.417Zm3.68-.498c-.129-.746-.683-1.253-1.444-1.253-.752 0-1.336.527-1.454 1.263-.02.08 0 .11.089.11h2.72c.079 0 .109-.03.089-.12Zm1.593 1.82c-.02-.059 0-.099.059-.119l.475-.169c.06-.02.109.01.128.07a.914.914 0 0 0 .88.676c.574 0 .851-.318.851-.726 0-.457-.336-.656-.8-.746l-.397-.08c-.672-.129-1.098-.646-1.098-1.303 0-.746.614-1.333 1.484-1.333.712 0 1.257.388 1.454 1.094.02.07-.01.11-.069.13l-.465.12c-.06.019-.109-.01-.118-.07-.1-.389-.376-.637-.802-.637-.465 0-.771.278-.771.666 0 .408.237.597.672.687l.386.08c.702.139 1.237.586 1.237 1.392 0 .776-.584 1.363-1.563 1.363-.811 0-1.336-.457-1.543-1.094Zm7.112-3.63h.524c.06 0 .1.04.1.099v4.417c0 .06-.04.1-.1.1h-.475c-.059 0-.099-.04-.099-.1v-.328c0-.05-.04-.07-.089-.02-.286.338-.652.547-1.197.547-1.009 0-1.533-.676-1.533-1.522V26.56c0-.06.04-.1.1-.1h.523c.06 0 .1.04.1.1v2.975c0 .646.346.995.959.995.435 0 .801-.24 1.039-.657.04-.08.049-.13.049-.209V26.56c0-.06.04-.1.099-.1Zm2.75 4.616h-.524c-.06 0-.1-.04-.1-.1V26.56c0-.06.04-.1.1-.1h.474c.06 0 .1.04.1.1v.328c0 .05.039.07.078.02.297-.338.663-.547 1.197-.547 1.02 0 1.544.677 1.544 1.522v3.094c0 .06-.04.1-.1.1h-.524c-.059 0-.099-.04-.099-.1v-2.974c0-.647-.346-.995-.96-.995-.434 0-.8.238-1.038.656-.04.08-.05.13-.05.21v3.103c0 .06-.039.1-.098.1Zm7.864-7.203h.524c.06 0 .1.04.1.1v7.003c0 .06-.04.1-.1.1h-.484c-.06 0-.1-.04-.1-.1v-.348c0-.07-.039-.08-.088-.02-.327.368-.821.567-1.464.567-1.276 0-2.256-.965-2.256-2.407 0-1.443.98-2.408 2.256-2.408.613 0 1.088.199 1.424.527.06.06.09.03.09-.03v-2.885c0-.06.039-.1.098-.1Zm-.138 5.91c.03-.06.04-.1.04-.16v-1.711c0-.06-.01-.1-.04-.16-.258-.437-.742-.735-1.366-.735-.979 0-1.632.706-1.632 1.75 0 1.045.653 1.752 1.632 1.752.624 0 1.108-.299 1.366-.737Zm2.888 1.293h-.524c-.06 0-.1-.04-.1-.1v-7.004c0-.06.04-.1.1-.1h.524c.06 0 .099.04.099.1v2.866c0 .06.03.07.07.02a1.517 1.517 0 0 1 1.157-.498c1.018 0 1.543.677 1.543 1.522v3.094c0 .06-.04.1-.1.1h-.524c-.059 0-.098-.04-.098-.1v-2.974c0-.647-.347-.995-.96-.995-.435 0-.811.228-1.039.656-.04.08-.05.13-.05.21v3.103c0 .06-.039.1-.098.1Zm3.996-2.308c0-1.463.97-2.408 2.236-2.408 1.266 0 2.216.965 2.216 2.298 0 .07 0 .15-.01.229-.01.05-.04.08-.099.08h-3.492c-.07 0-.109.03-.089.129.109.865.692 1.433 1.573 1.433.544 0 .98-.25 1.296-.577.069-.07.118-.09.168-.04l.326.358c.04.04.04.09 0 .13a2.454 2.454 0 0 1-1.79.785c-1.365 0-2.335-.955-2.335-2.417Zm3.68-.498c-.128-.746-.682-1.253-1.444-1.253-.752 0-1.335.527-1.454 1.263-.02.08 0 .11.089.11h2.72c.08 0 .109-.03.09-.12Zm1.741-3.432c0-.289.247-.537.544-.537.277 0 .525.248.525.537 0 .288-.248.547-.525.547a.557.557 0 0 1-.544-.547Zm.168 6.138V26.56c0-.06.04-.1.1-.1h.524c.059 0 .098.04.098.1v4.417c0 .06-.04.1-.098.1h-.525c-.06 0-.099-.04-.099-.1Zm2.523-6.317.534-.289c.07-.03.119 0 .119.07v1.97c0 .03.02.05.05.05h.543c.06 0 .1.04.1.099v.428c0 .06-.04.1-.1.1h-.544c-.03 0-.05.02-.05.049v3.84c0 .06-.039.1-.098.1h-.525c-.059 0-.098-.04-.098-.1v-3.84c0-.03-.02-.05-.05-.05h-.544c-.06 0-.099-.04-.099-.1v-.427c0-.06.04-.1.1-.1h.543c.03 0 .05-.02.05-.05v-1.63c0-.05.02-.1.069-.12ZM133 30.61c0 .407-.168.706-.346 1.014l-.742 1.283c-.03.06-.08.08-.139.04l-.336-.219c-.06-.04-.06-.08-.03-.13l.762-1.312c.04-.07.03-.1-.04-.13-.247-.08-.415-.318-.415-.607 0-.348.287-.636.643-.636.356 0 .643.258.643.696ZM17.916 39.423c0 1.492-.97 2.437-2.611 2.437h-.93c-.03 0-.05.02-.05.05v1.94c0 .06-.039.1-.098.1h-.535c-.059 0-.098-.04-.098-.1v-6.765c0-.06.04-.1.098-.1h1.613c1.642 0 2.611.945 2.611 2.438Zm-3.541 1.73h.86c1.217 0 1.91-.576 1.91-1.73s-.693-1.731-1.91-1.731h-.86c-.03 0-.05.02-.05.05v3.362c0 .03.02.05.05.05Zm4.689 2.697v-3.84c0-.03-.02-.05-.05-.05h-.395c-.06 0-.1-.04-.1-.09v-.437c0-.06.04-.1.1-.1h.395c.03 0 .05-.02.05-.05v-1.472c0-.716.366-1.174 1.068-1.174.198 0 .386.06.544.13.06.03.09.06.07.119l-.139.467c-.02.07-.07.07-.129.04a.659.659 0 0 0-.287-.08c-.247 0-.405.18-.405.538v1.433c0 .03.02.05.05.05h.613c.059 0 .099.04.099.099v.438c0 .05-.04.09-.1.09h-.613c-.03 0-.05.019-.05.049v3.84c0 .06-.039.1-.088.1h-.534c-.06 0-.1-.04-.1-.1Zm3.71-.408v.448c0 .06-.04.1-.1.1h-.178c-.603 0-.979-.28-.979-.916v-6.228c0-.06.04-.1.099-.1h.524c.06 0 .1.04.1.1v6.139c0 .218.078.358.296.358h.138c.06 0 .1.04.1.1Zm.712-1.8c0-1.463.969-2.408 2.235-2.408s2.216.965 2.216 2.298c0 .07 0 .15-.01.229-.01.05-.04.08-.099.08h-3.492c-.069 0-.109.03-.089.129.109.865.693 1.432 1.573 1.432.544 0 .98-.248 1.296-.577.07-.07.119-.09.168-.04l.327.359c.04.04.04.09 0 .129a2.454 2.454 0 0 1-1.791.786c-1.365 0-2.334-.955-2.334-2.418Zm3.68-.498c-.13-.746-.683-1.254-1.445-1.254-.752 0-1.335.528-1.454 1.264-.02.08 0 .11.089.11h2.72c.08 0 .11-.03.09-.12Zm2.027 4.099c-.04-.05-.04-.1 0-.14l.337-.368c.04-.05.089-.05.138 0 .287.349.722.597 1.335.597.91 0 1.474-.407 1.474-1.303v-.686c0-.05-.05-.07-.099-.02-.336.328-.81.527-1.424.527-1.236 0-2.196-.925-2.196-2.318 0-1.373.98-2.298 2.236-2.298.613 0 1.098.199 1.434.557.05.05.089.03.089-.03v-.328c0-.06.05-.1.099-.1h.485c.059 0 .098.04.098.1v4.656c0 1.233-.92 1.91-2.196 1.91-.81 0-1.414-.308-1.81-.756Zm3.245-2.756a.29.29 0 0 0 .05-.179v-1.542a.29.29 0 0 0-.05-.18c-.257-.407-.722-.696-1.346-.696-.95 0-1.592.677-1.592 1.642 0 .985.643 1.651 1.592 1.651.624 0 1.089-.288 1.346-.696Zm1.929-.846c0-1.462.97-2.407 2.235-2.407 1.267 0 2.216.965 2.216 2.298 0 .07 0 .15-.01.229-.01.05-.04.08-.099.08h-3.492c-.069 0-.108.03-.089.129.11.865.693 1.432 1.573 1.432.544 0 .98-.248 1.296-.577.07-.07.119-.09.168-.04l.327.359c.04.04.04.09 0 .129a2.454 2.454 0 0 1-1.79.786c-1.366 0-2.335-.955-2.335-2.418Zm3.68-.497c-.129-.746-.683-1.254-1.445-1.254-.751 0-1.335.528-1.454 1.264-.02.08 0 .11.09.11h2.72c.079 0 .108-.03.089-.12Zm7.25-1.81h.525c.059 0 .099.04.099.099v4.417c0 .06-.04.1-.1.1h-.474c-.06 0-.099-.04-.099-.1v-.328c0-.05-.04-.07-.09-.02-.286.338-.652.547-1.196.547-1.009 0-1.533-.676-1.533-1.522v-3.094c0-.06.04-.1.099-.1h.524c.06 0 .099.04.099.1v2.974c0 .647.346.995.96.995.435 0 .8-.238 1.038-.656.04-.08.05-.13.05-.21v-3.103c0-.06.04-.1.098-.1Zm2.75 4.616h-.524c-.06 0-.099-.04-.099-.1v-4.417c0-.06.04-.1.1-.1h.474c.06 0 .099.04.099.1v.328c0 .05.04.07.079.02.297-.338.663-.547 1.197-.547 1.019 0 1.543.676 1.543 1.522v3.094c0 .06-.04.1-.099.1h-.524c-.06 0-.099-.04-.099-.1v-2.975c0-.646-.346-.995-.96-.995-.435 0-.8.24-1.038.657-.04.08-.05.13-.05.209v3.104c0 .06-.04.1-.099.1Zm7.865-7.203h.524c.06 0 .099.04.099.1v7.003c0 .06-.04.1-.1.1h-.484c-.06 0-.099-.04-.099-.1v-.348c0-.07-.04-.08-.089-.02-.326.368-.82.567-1.464.567-1.276 0-2.255-.965-2.255-2.408 0-1.442.98-2.407 2.255-2.407.613 0 1.088.199 1.425.527.059.06.089.03.089-.03v-2.885c0-.06.04-.1.099-.1Zm-.139 5.91c.03-.06.04-.1.04-.16v-1.711c0-.06-.01-.1-.04-.16-.257-.437-.742-.736-1.365-.736-.98 0-1.632.707-1.632 1.751 0 1.045.653 1.751 1.632 1.751.623 0 1.108-.298 1.365-.736Zm8.369-1.573v-.507c0-.06.04-.1.099-.1h2.888c.06 0 .099.04.099.1-.099 2.189-1.464 3.542-3.433 3.542-1.948 0-3.462-1.493-3.462-3.652 0-2.158 1.514-3.65 3.492-3.65 1.227 0 2.265.527 2.879 1.412.04.05.03.1-.02.14l-.435.298c-.05.04-.1.03-.139-.02-.484-.717-1.315-1.105-2.285-1.105-1.592 0-2.73 1.174-2.73 2.925s1.138 2.925 2.7 2.925c1.346 0 2.335-.796 2.582-2.158.01-.03-.01-.05-.04-.05h-2.096c-.06 0-.1-.04-.1-.1Zm5.44 2.358v.448c0 .06-.04.1-.099.1h-.178c-.603 0-.979-.28-.979-.916v-6.228c0-.06.04-.1.099-.1h.524c.06 0 .1.04.1.1v6.139c0 .218.078.358.296.358h.138c.06 0 .1.04.1.1Zm.713-1.8c0-1.463.969-2.408 2.235-2.408s2.216.965 2.216 2.298c0 .07 0 .15-.01.229-.01.05-.04.08-.099.08h-3.492c-.069 0-.109.03-.089.129.109.865.693 1.432 1.573 1.432.544 0 .98-.248 1.296-.577.07-.07.119-.09.168-.04l.327.359c.04.04.04.09 0 .129a2.454 2.454 0 0 1-1.791.786c-1.365 0-2.334-.955-2.334-2.418Zm3.68-.498c-.13-.746-.683-1.254-1.445-1.254-.752 0-1.335.528-1.454 1.264-.02.08 0 .11.089.11h2.72c.08 0 .11-.03.09-.12Zm1.74-3.432c0-.289.248-.538.544-.538.277 0 .525.25.525.538 0 .288-.248.547-.525.547a.557.557 0 0 1-.544-.547Zm.169 6.138v-4.417c0-.06.04-.1.098-.1h.525c.06 0 .099.04.099.1v4.417c0 .06-.04.1-.1.1h-.524c-.059 0-.098-.04-.098-.1Zm4.194-4.616c.781 0 1.474.348 1.85.975.03.06.01.11-.04.14l-.425.238c-.05.03-.1.02-.139-.04-.247-.408-.702-.647-1.246-.647-.95 0-1.563.707-1.563 1.741 0 1.035.613 1.741 1.563 1.741.544 0 .979-.248 1.246-.646.04-.06.09-.07.139-.04l.425.239c.05.03.07.08.04.139-.327.657-1.069.975-1.85.975-1.336 0-2.295-.965-2.295-2.408 0-1.442.96-2.407 2.295-2.407Zm3.6 4.716h-.524c-.06 0-.099-.04-.099-.1v-7.004c0-.06.04-.1.1-.1h.523c.06 0 .1.04.1.1v2.865c0 .06.029.07.069.02a1.517 1.517 0 0 1 1.157-.497c1.019 0 1.543.676 1.543 1.522v3.094c0 .06-.04.1-.099.1h-.524c-.06 0-.099-.04-.099-.1v-2.975c0-.646-.346-.995-.96-.995-.435 0-.81.23-1.038.657-.04.08-.05.13-.05.209v3.104c0 .06-.04.1-.099.1Zm4.007-.985c-.02-.06 0-.1.059-.12l.475-.169c.06-.02.109.01.128.07a.914.914 0 0 0 .88.676c.575 0 .852-.318.852-.726 0-.458-.337-.657-.802-.746l-.395-.08c-.673-.13-1.098-.646-1.098-1.303 0-.746.613-1.333 1.483-1.333.713 0 1.257.388 1.455 1.094.02.07-.01.11-.07.13l-.465.119c-.059.02-.108-.01-.118-.07-.1-.388-.376-.636-.802-.636-.465 0-.771.278-.771.666 0 .408.237.597.672.687l.386.08c.703.138 1.237.586 1.237 1.392 0 .776-.584 1.363-1.563 1.363-.811 0-1.336-.458-1.543-1.094Zm4.55-5.432.534-.289c.07-.03.119 0 .119.07v1.97c0 .03.02.05.05.05h.543c.06 0 .1.04.1.099v.428c0 .06-.04.1-.1.1h-.544c-.03 0-.05.019-.05.049v3.84c0 .06-.039.1-.098.1h-.524c-.06 0-.1-.04-.1-.1v-3.84c0-.03-.019-.05-.049-.05h-.544c-.06 0-.099-.04-.099-.1v-.427c0-.06.04-.1.1-.1h.543c.03 0 .05-.02.05-.05v-1.631c0-.05.02-.1.069-.12Zm2.008 4.108c0-1.462.97-2.407 2.236-2.407 1.266 0 2.216.965 2.216 2.298 0 .07 0 .15-.01.229-.01.05-.04.08-.1.08h-3.491c-.07 0-.109.03-.09.129.11.865.693 1.432 1.574 1.432.544 0 .979-.248 1.295-.577.07-.07.12-.09.169-.04l.326.359c.04.04.04.09 0 .129a2.454 2.454 0 0 1-1.79.786c-1.365 0-2.335-.955-2.335-2.418Zm3.68-.497c-.129-.746-.683-1.254-1.444-1.254-.752 0-1.336.528-1.454 1.264-.02.08 0 .11.089.11h2.72c.079 0 .109-.03.089-.12Zm3.136 2.298v.448c0 .06-.04.1-.1.1h-.177c-.604 0-.98-.28-.98-.916v-6.228c0-.06.04-.1.1-.1h.524c.059 0 .099.04.099.1v6.139c0 .218.079.358.296.358h.139c.06 0 .099.04.099.1Zm2.354 0v.448c0 .06-.04.1-.099.1h-.178c-.603 0-.98-.28-.98-.916v-6.228c0-.06.04-.1.1-.1h.524c.06 0 .099.04.099.1v6.139c0 .218.079.358.297.358h.138c.06 0 .099.04.099.1Zm3.937-4.109h.524c.06 0 .1.04.1.1v4.417c0 .06-.04.1-.1.1h-.475c-.059 0-.098-.04-.098-.1v-.328c0-.05-.04-.07-.09-.02-.286.338-.652.547-1.196.547-1.01 0-1.534-.676-1.534-1.522v-3.094c0-.06.04-.1.1-.1h.524c.059 0 .098.04.098.1v2.974c0 .647.347.995.96.995.435 0 .801-.238 1.039-.656.04-.08.05-.13.05-.21v-3.103c0-.06.039-.1.098-.1Zm2.75 4.617h-.524c-.06 0-.1-.04-.1-.1v-4.417c0-.06.04-.1.1-.1h.475c.059 0 .098.04.098.1v.328c0 .05.04.07.08.02.296-.338.662-.547 1.197-.547 1.018 0 1.543.676 1.543 1.522v3.094c0 .06-.04.1-.1.1h-.524c-.059 0-.098-.04-.098-.1v-2.975c0-.646-.347-.995-.96-.995-.435 0-.801.24-1.039.657-.04.08-.05.13-.05.209v3.104c0 .06-.039.1-.098.1Zm4.442 1.293c-.04-.05-.04-.1 0-.14l.336-.368c.04-.05.089-.05.138 0 .287.349.722.597 1.336.597.91 0 1.474-.407 1.474-1.303v-.686c0-.05-.05-.07-.1-.02-.336.328-.81.527-1.424.527-1.236 0-2.196-.925-2.196-2.318 0-1.373.98-2.298 2.236-2.298.613 0 1.098.199 1.434.557.05.05.09.03.09-.03v-.328c0-.06.049-.1.098-.1h.485c.06 0 .099.04.099.1v4.656c0 1.233-.92 1.91-2.196 1.91-.811 0-1.415-.308-1.81-.756Zm3.244-2.756a.29.29 0 0 0 .05-.179v-1.542a.29.29 0 0 0-.05-.18c-.257-.407-.722-.696-1.345-.696-.95 0-1.593.677-1.593 1.642 0 .985.643 1.651 1.593 1.651.623 0 1.088-.288 1.345-.696Z" fill="#000"/></g></svg>