<svg width="106" height="32" xmlns="http://www.w3.org/2000/svg"><g fill-rule="nonzero" fill="none"><path d="M64.444 21.987v5.155h2.43l-.022.704h-3.154v-5.86h.746Zm-12.083 0v5.859h3.345l.022-.704h-2.621V25.12h2.152v-.64h-2.152v-1.79h2.514l-.021-.702h-3.24Zm8.226 1.683c0-.767-.299-1.023-.96-1.023h-1.022v2.067h1.001c.682 0 .98-.256.98-1.044Zm-.277 1.512 1.406 2.642h-.874L59.65 25.31h-1.044v2.514h-.746v-5.837h1.747c1.172 0 1.727.511 1.727 1.661.02.917-.341 1.407-1.023 1.534Zm-11.956 2.003c.64 0 1.002-.256 1.002-1.065 0-.725-.32-1.023-1.023-1.023h-1.236v2.088h1.257Zm-1.278-2.684h1.193c.618 0 .874-.299.874-.938 0-.682-.277-.916-.917-.916h-1.172v1.854h.022Zm2.024.234c.618.15.98.597.98 1.427 0 1.066-.49 1.662-1.747 1.662H46.35v-5.837h1.918c1.066 0 1.62.468 1.62 1.448 0 .725-.32 1.13-.789 1.3Zm19.755 3.09h.746v-5.838h-.767v5.837h.021Zm6.67-5.838V25.8l.022.618h-.021l-.32-.554-2.323-3.877h-.682v5.859h.66v-4.581h.022l.32.554 2.45 4.027h.533v-5.86h-.66Zm11.018-6.008a2.2 2.2 0 0 1-.554.064c-.895 0-1.215-.384-1.215-1.897 0-1.49.32-1.896 1.364-1.896.448 0 .917.086 1.279.235l.128-1.087c-.405-.17-.96-.256-1.47-.256-1.812 0-2.58.938-2.58 3.047 0 2.045.683 3.025 2.537 3.025.596 0 1.214-.127 1.62-.32v-2.982h-1.109v2.067Zm-28.407-4.751H56.9v5.859h1.257v-5.86h-.021Zm-5.626 5.859h1.236v-4.709h1.428l-.022-1.15h-4.027l-.022 1.15h1.428v4.709h-.021Zm-4.774-1.002c-.533 0-1.001-.149-1.449-.383l-.17 1.086c.447.256 1.023.405 1.64.405 1.258 0 2.004-.682 2.004-1.832 0-1.918-2.43-1.577-2.43-2.514 0-.32.192-.575.853-.575.405 0 .81.085 1.257.234l.15-1.065c-.406-.192-.938-.299-1.471-.299-1.343 0-1.96.767-1.96 1.747 0 1.918 2.429 1.577 2.429 2.536-.022.426-.277.66-.853.66Zm32.712-1.939.022.618h-.022l-2.173-3.558H77.23v5.88h1.087V13.359h.022l.32.554 2.002 3.175h.874v-5.86h-1.087v2.92Zm-16.942-.468h-1.918v-1.3h2.28l-.02-1.15h-3.496v5.859h1.236v-2.323h1.897l.021-1.086Zm11.615 1.406v-3.856h-1.215v3.856c0 .682-.256.959-.916.959-.661 0-.938-.299-.938-.96v-3.855h-1.236v3.856c0 1.406.746 2.088 2.152 2.088 1.407 0 2.153-.682 2.153-2.088Zm-5.882-3.856H65.21l-.021 1.15h1.428v4.709h1.236v-4.709h1.427l-.042-1.15Zm3.793-5.22V.149h-1.087v2.919l.022.618h-.022L69.793.149h-1.044v5.859h1.087V2.28h.02l.32.554 2.004 3.174h.852Zm-26.02 0h1.236V1.3h1.428L49.654.15h-4.028l-.02 1.15h1.427v4.708h-.021Zm56.58-1.108V3.515h1.94V2.493h-1.94V1.257h2.301l-.02-1.13h-3.496v5.881h3.602L106 4.9h-2.408Zm-18.583-.042h-2.153V.149H81.62v5.859h3.368l.02-1.15ZM63.506 3.579h1.812v2.429h1.236V.149h-1.236v2.28h-1.812V.149H62.27v5.859h1.236V3.579ZM55.046 4.9h-2.408V3.515h1.939V2.493h-1.94V1.257h2.302l-.021-1.13h-3.495v5.881h3.602l.02-1.108ZM78.36 3.068c0-1.555-.256-1.875-1.066-1.875-.788 0-1.065.341-1.065 1.875 0 1.555.277 1.896 1.065 1.896.81 0 1.066-.34 1.066-1.896Zm-1.066 3.025c-1.64 0-2.344-.873-2.344-3.025 0-2.173.682-3.025 2.344-3.025 1.663 0 2.345.852 2.345 3.025.02 2.216-.682 3.025-2.345 3.025Zm21.61-.085h1.257V.149h-1.258v5.859Zm-39.788.085c.469 0 .96-.106 1.321-.298L60.31 4.75a2.47 2.47 0 0 1-1.002.213c-.959 0-1.3-.426-1.3-1.96 0-1.427.32-1.854 1.279-1.854.383 0 .746.086 1.023.17l.127-1.086C60.14.107 59.627 0 59.201 0c-1.704 0-2.472.98-2.472 2.983 0 2.173.768 3.11 2.387 3.11Zm30.581-3.025c0-1.555-.256-1.875-1.065-1.875-.789 0-1.066.341-1.066 1.875 0 1.555.277 1.896 1.066 1.896.81 0 1.065-.34 1.065-1.896Zm1.3 0c0 2.216-.682 3.025-2.344 3.025-1.64 0-2.344-.873-2.344-3.025 0-2.173.682-3.025 2.344-3.025s2.344.873 2.344 3.025Zm4.71 1.832c-.17.043-.362.064-.554.064-.895 0-1.215-.383-1.215-1.896 0-1.491.32-1.896 1.364-1.896.447 0 .916.085 1.279.234L96.708.32c-.383-.17-.959-.277-1.47-.277-1.811 0-2.579.937-2.579 3.046 0 2.045.704 3.026 2.536 3.026.597 0 1.236-.128 1.62-.32V2.834h-1.108V4.9Z" fill="#000"/><path fill="#E60032" d="M3.346 32 0 21.965l.15-.106 11.123 1.853-.085.086z"/><path fill="#6ECDF5" d="m7.757 5.752 31.924 14.062-3.687 8.095L0 21.965z"/><path fill="#64B9E6" d="M0 21.965 31.39 2.727l4.604 25.182z"/><path fill="#2D91D2" d="m0 21.965 18.647-11.42 15.408 6.776 1.939 10.588z"/><path fill="#375AA5" d="M0 21.965 31.39 2.727l-20.202 21.07z"/><path fill="#1E3791" d="m0 21.965 18.647-11.42 3.708 1.62-11.167 11.633z"/></g></svg>