<svg xmlns="http://www.w3.org/2000/svg" width="88" height="88" viewBox="0 0 88 88"><path fill="#FFF" fill-rule="evenodd" d="M87.9994055,6.595449 L87.9994055,12.778449 L12.3534055,87.999449 L6.13440553,87.999449 L87.9994055,6.595449 Z M87.9994055,21.250449 L87.9994055,27.433449 L27.0904055,87.999449 L20.8724055,87.999449 L87.9994055,21.250449 Z M87.9994055,35.905449 L87.9994055,42.088449 L41.8284055,87.999449 L35.6104055,87.999449 L87.9994055,35.905449 Z M87.9994055,50.560449 L87.9994055,56.743449 L56.5664055,87.999449 L50.3474055,87.999449 L87.9994055,50.560449 Z M87.9994055,65.215449 L87.9994055,71.397449 L71.3034055,87.999449 L65.0864055,87.999449 L87.9994055,65.215449 Z M87.9994055,79.869449 L87.9994055,86.051449 L86.0404055,87.999449 L79.8234055,87.999449 L87.9994055,79.869449 Z M86.1134055,-0.000550995266 L-0.000594473515,85.628449 L-0.000594473515,79.446449 L79.8964055,-0.000550995266 L86.1134055,-0.000550995266 Z M71.3754055,-0.000550995266 L-0.000594473515,70.973449 L-0.000594473515,64.791449 L65.1574055,-0.000550995266 L71.3754055,-0.000550995266 Z M56.6374055,-0.000550995266 L-0.000594473515,56.318449 L-0.000594473515,50.137449 L50.4204055,-0.000550995266 L56.6374055,-0.000550995266 Z M41.8984055,-0.000550995266 L-0.000594473515,41.662449 L-0.000594473515,35.481449 L35.6824055,-0.000550995266 L41.8984055,-0.000550995266 Z M27.1614055,-0.000550995266 L-0.000594473515,27.008449 L-0.000594473515,20.827449 L20.9454055,-0.000550995266 L27.1614055,-0.000550995266 Z M12.4234055,-0.000550995266 L-0.000594473515,12.353449 L-0.000594473515,6.172449 L6.20740553,-0.000550995266 L12.4234055,-0.000550995266 Z"/></svg>