<svg xmlns="http://www.w3.org/2000/svg" width="24" height="24" viewBox="0 0 24 24"><g fill="none" fill-rule="evenodd"><polygon points="0 0 24 0 24 24 0 24"/><path stroke="currentColor" stroke-linecap="square" stroke-width="3" d="M6,4 L5,4 C3.8954305,4 3,4.8954305 3,6 L3,9.5 L3,9.5 C3,12.5375661 5.46243388,15 8.5,15 C11.5375661,15 14,12.5375661 14,9.5 L14,6 C14,4.8954305 13.1045695,4 12,4 L11,4"/><path stroke="currentColor" stroke-width="3" d="M8,15 C8,17.1435936 9.19124323,19.1243557 11.125,20.1961525 C13.0587567,21.2679493 15.4412433,21.2679493 17.375,20.1961525 C19.3087568,19.1243557 20.5,17.1435936 20.5,15 L20.5,12"/><line x1="11" x2="11" y1="3" y2="5" stroke="currentColor" stroke-linecap="square" stroke-width="3"/><line x1="6" x2="6" y1="3" y2="5" stroke="currentColor" stroke-linecap="square" stroke-width="3"/><circle cx="20.5" cy="10.5" r="2.5" stroke="currentColor" stroke-linecap="square" stroke-width="3"/></g></svg>