<svg xmlns="http://www.w3.org/2000/svg" width="24" height="24" viewBox="0 0 24 24"><g fill="none" fill-rule="evenodd"><polygon points="0 0 24 0 24 24 0 24"/><path stroke="currentColor" stroke-linecap="square" stroke-width="3" d="M3.88956847,13.9011591 L19.8895685,12.1233813 C20.4384753,12.0623916 20.9328941,12.4579267 20.9938837,13.0068335 C20.9979581,13.043503 21,13.0803699 21,13.117265 L21,16.882735 C21,17.4350197 20.5522847,17.882735 20,17.882735 C19.9631048,17.882735 19.926238,17.8806931 19.8895685,17.8766187 L3.88956847,16.0988409 C3.38313579,16.0425706 3,15.6145064 3,15.1049572 L3,14.8950428 C3,14.3854936 3.38313579,13.9574294 3.88956847,13.9011591 Z"/><line x1="12" x2="12" y1="14" y2="16" stroke="currentColor" stroke-linecap="square" stroke-width="2"/><path stroke="currentColor" stroke-linecap="square" stroke-width="3" d="M16,3 L16,3.5 C16,4.6045695 16.8954305,5.5 18,5.5 C19.1045695,5.5 20,6.3954305 20,7.5 L20,8"/></g></svg>