<svg xmlns="http://www.w3.org/2000/svg" width="24" height="24" viewBox="0 0 24 24"><g fill="none" fill-rule="evenodd"><polygon points="0 0 24 0 24 24 0 24"/><path stroke="currentColor" stroke-linecap="square" stroke-linejoin="round" stroke-width="3" d="M5.99999778,10 C5.99765539,7.04156266 7.8554347,4.40107885 10.640786,3.40399565 C13.4261374,2.40691246 16.5375825,3.26854342 18.4132653,5.55637452 C20.2889481,7.84420562 20.5238271,11.0641948 18.9999978,13.6 C18.4314575,14.3580567 17.7580567,15.0314575 16.9999978,15.6 C16.113736,16.4347832 15.4296983,17.4608397 14.9999978,18.6 C14.3716852,19.7873631 13.2457535,20.6319265 11.9299921,20.9028186 C10.6142306,21.1737106 9.24624842,20.8426001 8.2,20"/><path stroke="currentColor" stroke-linecap="square" stroke-linejoin="round" stroke-width="3" d="M10,10 C9.98346148,8.61712841 10.9143994,7.40213789 12.2539489,7.05831459 C13.5934984,6.71449128 14.9945128,7.33093762 15.6460278,8.55082927 C16.2975427,9.77072093 16.0307169,11.2779208 15,12.2"/></g></svg>