<svg xmlns="http://www.w3.org/2000/svg" width="24" height="24" viewBox="0 0 24 24"><g fill="none" fill-rule="evenodd" stroke="currentColor" stroke-linejoin="round" transform="translate(2.4 3)"><path stroke-linecap="round" stroke-width="3" d="M12.1158219,8.40477111 L12.1158219,11.6009513 C11.9677412,12.7359251 12.7477981,13.7787275 13.8577396,13.9305392 C14.9681236,14.0819896 15.9877828,13.2844355 16.1360405,12.1494617 C16.1597618,11.9674683 16.1597618,11.7831706 16.1360405,11.6014031 L16.1358108,2.34811357 C16.2838915,1.21313977 15.5038346,0.170337413 14.3938931,0.0185256316 C13.2839516,-0.13328615 12.2638499,0.664629346 12.1155922,1.79960314 L12.1155922,2.38742198 C12.2636729,1.25244818 11.483616,0.209645821 10.3736745,0.0578340394 C9.26373303,-0.0939777424 8.24363133,0.703937753 8.09537359,1.83891155 L8.09537359,2.93548058 C8.2434543,1.80050678 7.46339735,0.757704426 6.35345589,0.605892644 C5.24351442,0.454080863 4.22341271,1.25199636 4.07515498,2.38697015 C4.06356432,2.78213261 4.06414408,3.11575707 4.03931644,3.52239577 C4.18739715,2.38742198 3.4073402,1.34461962 2.29739873,1.19280784 C1.18745726,1.04099605 0.167355557,1.83891155 0.0190978249,2.97388535 C-0.00462341218,3.15587876 -0.00462341218,3.34017645 0.0101979354,3.52239577 L0.0193323819,8.57827029 C-0.128748326,9.71324409 0.651308624,10.7560464 1.76125009,10.9078582 C2.87163412,11.0593086 3.89129326,10.2617545 4.039551,9.12678071 C4.06327223,8.9447873 4.06327223,8.76048961 4.039551,8.57872211 L4.039551,7.97283045 L4.05735078,7.07225861 L4.03954657,11.4757969 C3.89146586,12.6107707 4.67152281,13.6535731 5.78146428,13.8053849 C6.89140575,13.9571967 7.91150745,13.1592812 8.05976519,12.0243074 C8.08348642,11.842314 8.08348642,10.4212472 8.05976519,10.2391635 L8.05976519,7.97463773 L8.04173085,6.59351562 L8.05976519,12.6518864 C7.91168448,13.7868602 8.69174143,14.8296626 9.80168289,14.9814744 C10.9116244,15.1332862 11.9317261,14.3353707 12.0799838,13.2003969 C12.103705,13.0184034 12.103705,12.8341058 12.0799838,12.6523383 L12.1155922,5.97917893 L12.1158219,8.40477111 Z"/><path stroke-width="2" d="M16.1538462,5.10205541 C18.4439784,5.01116268 19.7142942,5.45062133 19.9647935,6.42043138 C20.3405425,7.87514644 18.9593694,16.8057912 17.5206968,17.4057912 C16.0820242,18.0057912 7.977388,18.3157106 6.61549697,17.7642294 C5.70756962,17.3965753 6.0332287,16.1828443 7.5924742,14.1230364"/></g></svg>