<svg xmlns="http://www.w3.org/2000/svg" width="24" height="24" viewBox="0 0 24 24"><g fill="none" fill-rule="evenodd"><polygon points="0 0 24 0 24 24 0 24"/><path stroke="currentColor" stroke-width="3" d="M4.21948212 7.55551379 13.6640153 7.55551379C15.0970407 7.58293431 16.3156528 6.51555335 16.4772502 5.09140447 16.6388476 3.66725559 15.6903679 2.35397588 14.287631 2.05962398 12.8848941 1.76527207 11.4885064 2.5865021 11.0639909 3.95547995M1.99723901 12 19.2196231 12C20.6526485 11.9725795 21.8712606 13.0399604 22.032858 14.4641093 22.1944554 15.8882582 21.2459756 17.2015379 19.8432388 17.4958898 18.4405019 17.7902417 17.0441141 16.9690117 16.6195987 15.6000338M3.10836057 16.4444862 9.21952911 16.4444862C10.6525545 16.4170657 11.8711666 17.4844466 12.032764 18.9085955 12.1943614 20.3327444 11.2458816 21.6460241 9.84314478 21.940376 8.44040791 22.2347279 7.04402016 21.4134979 6.61950467 20.04452"/></g></svg>